<svg width="84" height="87" viewBox="0 0 84 87" fill="none" xmlns="http://www.w3.org/2000/svg">
<path d="M19.2598 45.3141C19.1215 45.9363 19.3981 46.6967 19.9511 47.0423C20.0202 47.1115 20.0894 47.1115 20.0894 47.1806C20.1585 47.2497 20.1585 47.3189 20.1585 47.388C20.1585 47.6645 20.1585 48.0793 19.882 48.1484C19.8128 48.2175 19.6746 48.2175 19.6055 48.2175C19.2598 48.3558 19.1907 48.7706 19.1907 49.1162C19.1907 49.3927 19.2598 49.6693 19.4672 49.8767C19.7437 50.0149 20.0894 49.9458 20.3659 49.8075C21.1263 49.4619 21.8867 49.0471 22.1633 48.2867C22.3707 47.8028 22.3015 47.3188 22.2324 46.8349C22.1633 46.1436 22.0941 45.3832 21.9559 44.6919L19.2598 45.3141Z" fill="white"/>
<path d="M2.5995 45.2449C1.83907 45.7979 1.63168 46.9731 1.97733 47.8718C2.04646 48.0101 2.04646 48.0792 2.11559 48.2175C2.32298 48.7014 2.73776 49.1162 3.15254 49.3927C3.56732 49.6692 4.05123 49.7383 4.53514 49.7383C4.60427 49.7383 4.60427 49.7383 4.6734 49.6692C4.6734 49.6001 4.6734 49.6001 4.6734 49.531C4.53514 48.9779 4.32775 48.494 3.9821 48.0101C4.12036 48.0792 4.25862 48.0101 4.39688 47.8718C4.46601 47.7336 4.53514 47.5953 4.53514 47.4571C4.60427 46.7658 4.60427 46.0745 4.39688 45.4523C4.32775 45.4523 4.18949 45.5214 4.12036 45.5214L2.5995 45.2449Z" fill="white"/>
<path d="M14.6281 76.7681C14.6281 76.8373 14.6281 76.9755 14.6281 77.0446C14.2825 80.5011 14.0751 81.5381 15.5268 82.3676C17.0476 83.1972 16.5637 84.5107 18.3611 84.8563C20.1585 85.202 21.9559 84.6489 22.025 83.7502C22.0941 82.8516 20.8498 82.4368 19.8128 80.5703C18.7759 78.7729 18.3611 76.699 18.3611 76.699L14.6281 76.7681Z" fill="white"/>
<path d="M16.702 78.7038C16.702 79.6025 17.2551 80.432 17.9464 81.0542C18.6377 81.6764 19.4672 82.1603 20.0203 82.8516C20.2276 83.1281 20.435 83.4046 20.435 83.7503C20.435 84.3033 19.8129 84.7181 19.329 84.9946C19.8129 84.8564 20.3659 84.7872 20.8498 84.649C21.2646 84.5798 21.7485 84.4416 21.9559 84.0268C22.1633 83.6811 22.025 83.1972 21.7485 82.8516C21.472 82.5059 21.1263 82.2986 20.8498 81.9529C20.3659 81.3999 20.0894 80.7086 19.8129 80.0173C19.6055 79.4642 19.3981 78.9112 19.1216 78.3582C18.9833 78.0125 18.7759 77.5977 18.4303 77.5977L16.702 78.7038Z" fill="#E1E1FF"/>
<path d="M4.32774 77.5977C4.466 79.6716 3.70557 82.1603 2.73775 83.3355C1.76993 84.5107 1.0095 85.9624 3.49818 86.3772C6.05598 86.8611 7.36945 85.0637 7.43858 83.8194C7.50771 82.5751 9.02857 82.0912 9.02857 80.8468C8.95944 79.6025 9.02857 78.3582 9.02857 78.3582L4.32774 77.5977Z" fill="white"/>
<path d="M5.43381 79.3259C5.71033 79.8099 6.53989 79.6025 6.88554 79.9481C7.0238 80.1555 7.09293 80.3629 7.0238 80.6394C6.95467 80.9851 6.81641 81.3307 6.67815 81.6764C6.26337 82.5751 5.84859 83.5429 5.22642 84.3033C4.60425 85.0637 3.63644 85.6859 2.59949 85.6859C3.84383 86.3772 5.6412 86.2389 6.53989 85.0637C6.74728 84.7872 6.88554 84.4416 7.09293 84.0959C7.57684 83.2664 8.19901 82.5751 8.61379 81.7455C9.02857 80.9159 9.23596 79.8099 8.68292 79.0494C8.61379 79.1186 8.47553 79.1877 8.4064 79.1877L5.43381 79.3259Z" fill="#E1E1FF"/>
<path d="M1.49341 45.7288L4.60425 45.9362L5.6412 42.8945C7.85336 44.5536 15.112 43.5858 16.0107 43.5858C16.9094 43.5858 18.292 42.9636 18.292 42.9636L18.4994 45.0375C18.4994 45.0375 21.2646 45.6597 23.1311 44.0697C22.578 39.9911 20.6424 24.7134 20.0202 22.8469C19.398 20.9803 18.2228 18.9065 14.3516 18.146C13.6603 20.5656 10.6186 20.3582 8.19901 18.8373C4.53512 19.8051 3.15253 22.0864 2.59949 24.2295C2.04645 26.3725 1.63167 37.0185 1.63167 37.0185L1.49341 45.7288Z" fill="#7777FF"/>
<path d="M5.43381 25.6812C5.15729 27.4094 4.88077 29.1377 4.60425 30.8659C3.98208 35.5668 3.5673 40.2676 3.49817 45.0376C3.49817 45.3832 3.49817 45.7289 3.77469 45.9363C4.05121 46.2128 4.53512 46.0745 4.81164 45.798C5.08816 45.5215 5.15729 45.1067 5.22642 44.6919C5.50294 43.2402 5.6412 41.7885 5.57207 40.2676L5.43381 25.6812Z" fill="#6363EB"/>
<path d="M20.8498 45.1067C20.8498 45.1067 20.8498 45.0376 20.8498 45.1067C20.9189 42.8945 20.5041 40.6132 20.2276 38.4011C20.0894 36.8111 19.8129 35.2902 19.6746 33.7003C19.5363 31.9029 19.4672 30.1055 19.3289 28.3773C19.2598 27.5477 19.1907 26.7181 19.1216 25.9577C18.9833 25.059 18.7068 24.2295 18.4994 23.3308C18.2229 22.4321 18.0155 21.6025 17.4624 20.8421C17.1168 20.3582 16.702 19.9434 16.2181 19.5286C16.0798 19.3904 14.4207 18.2152 14.559 18.0769C14.559 18.0769 13.5912 19.8743 11.8629 20.0125C12.3468 19.9434 12.6925 21.6717 12.8999 22.0173C13.2455 22.7777 13.7294 23.2616 13.9368 24.0912C14.2825 25.1282 14.4899 26.1651 14.6281 27.2021C14.9738 29.3451 15.1811 31.419 15.3194 33.562C15.4577 35.2902 15.5959 37.0876 15.7342 38.8159C15.8724 40.9589 15.112 41.9267 14.0751 43.5858C15.3885 43.7241 16.9785 43.2402 18.292 43.0328L18.5685 45.1067C18.4994 45.1758 20.0894 45.3832 20.8498 45.1067Z" fill="#6363EB"/>
<path d="M16.8403 10.8183C16.8403 11.5787 16.149 11.9243 15.4577 11.7861C15.2503 11.7861 15.112 11.8552 15.112 12.0626C15.112 14.0674 13.6603 15.3117 11.9321 15.8647C11.8629 15.8647 11.7938 16.003 11.7938 16.0721C11.7938 16.1413 11.7938 16.1413 11.7938 16.2104C11.7938 16.2795 11.8629 16.3486 12.0012 16.2795C12.3468 16.2104 12.6234 16.1413 12.8999 16.0721H12.969C12.969 16.1413 12.969 16.2104 12.969 16.2795C12.969 16.4869 12.969 16.6943 12.969 16.9017C13.0381 17.1782 13.1764 17.4547 13.3838 17.6621C13.5912 17.8695 13.7986 17.9386 14.0751 18.0769C13.8677 18.4917 13.6603 18.9065 13.2455 19.1138C12.7616 19.3904 12.1395 19.5286 11.5173 19.5286H11.4482C10.4803 19.5286 9.51252 19.183 8.82122 18.5608C9.09774 18.4225 9.30513 18.2152 9.44339 17.9386C9.58165 17.9386 9.65078 17.8695 9.71991 17.7312C9.78904 17.3165 9.71991 16.9017 9.58165 16.4178C9.51252 16.2104 9.51252 16.003 9.44339 15.7956C9.71991 15.9339 10.0656 16.003 10.4112 16.003C10.5495 16.003 10.6877 15.8647 10.6186 15.7265C10.6186 15.6573 10.6186 15.5882 10.5495 15.5882C10.5495 15.5882 10.4803 15.5882 10.4803 15.5191C8.75209 15.0352 7.57688 13.7908 7.57688 11.9935C7.57688 11.7861 7.36949 11.7169 7.23123 11.7169C6.60906 11.8552 5.84863 11.4404 5.84863 10.7491C5.84863 10.0578 6.60906 9.71218 7.1621 10.127C7.36949 10.2652 7.57688 10.0578 7.57688 9.85044V9.71218C7.64601 9.71218 7.71514 9.64305 7.64601 9.57392C7.64601 9.2974 7.57688 9.09001 7.50775 8.81349C7.50775 7.77654 7.50775 6.80872 7.50775 5.77177C7.57688 5.70264 7.57688 5.70264 7.57688 5.63351C7.64601 5.42612 7.64601 5.1496 7.71514 4.94221C7.71514 4.87308 7.71514 4.80396 7.78427 4.73483C7.78427 4.6657 7.78427 4.6657 7.78427 4.6657C9.65078 5.35699 11.7247 5.63351 13.7294 5.42612C14.0751 5.42612 14.4207 5.35699 14.7664 5.21873C14.9046 5.28786 15.0429 5.35699 15.1812 5.35699C15.1812 5.77177 15.1812 6.11742 15.1812 6.5322C15.1812 7.63828 15.1812 8.74436 15.1812 9.85044C15.1812 10.0578 15.4577 10.2652 15.5959 10.127C16.0799 9.78131 16.8403 10.127 16.8403 10.8183Z" fill="white"/>
<path d="M14.5589 18.0769C13.8677 19.3212 12.4159 20.0125 11.0333 19.8051C11.1716 19.736 11.3098 19.6669 11.379 19.5977C11.5172 19.4595 11.5864 19.3212 11.6555 19.183C11.7938 18.9064 11.7938 18.5608 11.7938 18.2151C11.7938 17.593 11.7938 16.9017 11.7938 16.2795C11.7938 16.3486 11.8629 16.4178 12.0011 16.3486C12.3468 16.2795 12.6233 16.2104 12.8998 16.1412C12.8998 16.2104 12.8998 16.2795 12.8998 16.3486C13.1072 17.1091 13.7294 17.8004 14.5589 18.0769Z" fill="#E1E1FF"/>
<path d="M16.8403 10.8183C16.8403 11.5787 16.149 11.9243 15.4577 11.7861C15.2503 11.7861 15.112 11.8552 15.112 12.0626C15.112 14.0674 13.6603 15.3117 11.932 15.8647C11.8629 15.8647 11.7938 16.003 11.7938 16.0721C11.379 16.0721 10.9642 16.003 10.5495 15.7956C10.4803 15.7265 10.3421 15.7265 10.2729 15.6573C10.3421 15.6573 10.4112 15.6573 10.4803 15.6573C11.4481 15.5882 12.3468 15.1734 13.1073 14.5513C13.8677 13.86 14.3516 12.8922 14.4899 11.8552C14.6972 10.127 13.9368 8.39871 14.0751 6.60133C13.3838 7.01611 12.4851 7.08524 11.6555 6.94698C10.826 6.80872 10.0655 6.46307 9.30511 6.11742C8.68294 5.8409 8.06078 5.42612 7.646 4.94221C7.646 4.87308 7.646 4.80396 7.71513 4.73483C7.71513 4.6657 7.71513 4.6657 7.71513 4.6657C9.58163 5.35699 11.6555 5.63351 13.6603 5.42612C14.0059 5.42612 14.3516 5.35699 14.6972 5.21873C14.8355 5.28786 14.9738 5.35699 15.112 5.35699C15.112 5.77177 15.112 6.11742 15.112 6.5322C15.112 7.63828 15.112 8.74436 15.112 9.85044C15.112 10.0578 15.3885 10.2652 15.5268 10.127C16.0798 9.78131 16.8403 10.127 16.8403 10.8183Z" fill="#E1E1FF"/>
<path d="M9.71982 8.95175V8.81349C9.71982 8.74436 9.65069 8.67523 9.58156 8.6061C9.51243 8.53697 9.4433 8.53697 9.37417 8.6061C9.30504 8.6061 9.23591 8.67523 9.16678 8.74436C9.02852 9.02088 9.02852 9.2974 9.09765 9.50479C9.09765 9.57392 9.16678 9.64305 9.23591 9.71218C9.30504 9.78131 9.37417 9.78131 9.4433 9.71218C9.51243 9.71218 9.58156 9.64305 9.65069 9.57392C9.71982 9.50479 9.71982 9.43566 9.65069 9.36653V9.22827C9.65069 9.15914 9.65069 9.15914 9.65069 9.09001C9.71982 9.09001 9.71982 9.02088 9.71982 8.95175L9.65069 9.09001L9.71982 8.95175Z" fill="#372B7B"/>
<path d="M13.3838 8.74431C13.3147 8.67518 13.2456 8.67518 13.1764 8.67518C13.1073 8.67518 13.0382 8.67518 12.969 8.74431C12.8999 8.81344 12.8999 8.88257 12.8999 8.9517C12.8999 9.15909 12.8999 9.29735 12.8999 9.50474C12.8999 9.57387 12.969 9.71213 12.969 9.71213C13.0382 9.78126 13.1073 9.78126 13.1764 9.78126C13.2456 9.78126 13.3838 9.78126 13.3838 9.71213C13.4529 9.643 13.4529 9.57387 13.4529 9.50474C13.4529 9.29735 13.4529 9.15909 13.4529 8.9517C13.4529 8.88257 13.4529 8.81344 13.3838 8.74431Z" fill="#372B7B"/>
<path d="M9.65079 7.29258C9.37427 7.29258 9.16688 7.29258 8.89036 7.36171C8.61384 7.43084 8.40645 7.5691 8.19906 7.77649C8.12993 7.84562 8.12993 7.91475 8.19906 7.98388C8.26819 8.05301 8.33732 8.05301 8.40645 8.05301C8.61384 7.91475 8.7521 7.84562 8.95949 7.77649C9.09775 7.70736 9.16688 7.70736 9.30514 7.70736C9.37427 7.70736 9.51253 7.70736 9.58166 7.70736C9.65079 7.70736 9.78905 7.63823 9.78905 7.49997C9.85818 7.43084 9.78905 7.36171 9.65079 7.29258Z" fill="#372B7B"/>
<path d="M12.7616 7.63823C12.8999 7.63823 13.0381 7.70736 13.1764 7.70736C13.4529 7.77649 13.6603 7.91475 13.8677 8.12214C14.006 8.2604 14.2825 8.05301 14.1442 7.84562C13.9368 7.63823 13.6603 7.49997 13.3147 7.43084C13.1764 7.36171 13.0381 7.36171 12.8999 7.43084C12.7616 7.43084 12.6234 7.49997 12.4851 7.5691V7.63823C12.4851 7.5691 12.6234 7.5691 12.7616 7.63823Z" fill="#372B7B"/>
<path d="M12.3468 13.0995C12.0703 13.3761 11.6555 13.5143 11.3098 13.5143C10.8951 13.5835 10.4803 13.5143 10.1346 13.2378C10.0655 13.1687 9.92723 13.2378 9.8581 13.3069C9.78897 13.3761 9.8581 13.5143 9.92723 13.5835C10.342 13.86 10.8259 13.9982 11.3098 13.9982C11.8629 13.9982 12.2776 13.7908 12.6924 13.3761C12.8998 13.2378 12.6233 12.8922 12.3468 13.0995Z" fill="#372B7B"/>
<path d="M10.895 12.6156C11.0333 12.6156 11.1024 12.6156 11.2407 12.6156C11.379 12.6156 11.5172 12.6156 11.5863 12.5465C11.7246 12.4773 11.7937 12.4773 11.932 12.4082C12.0011 12.3391 12.0703 12.2699 12.0011 12.2008C11.932 12.1317 11.8629 12.0626 11.7937 12.0626C11.6555 12.0626 11.6555 12.0626 11.5172 12.1317C11.379 12.1317 11.3098 12.2008 11.1716 12.2008H11.1024H10.895C10.8259 12.2008 10.7568 12.2008 10.6877 12.2699L10.6185 12.4773L10.6877 12.6156C10.7568 12.6156 10.8259 12.6156 10.895 12.6156Z" fill="#372B7B"/>
<path d="M18.7068 78.1507C17.3242 78.4964 16.0107 78.5655 14.559 78.289C14.006 73.9338 13.6603 69.5786 13.2455 65.1543C13.0381 62.8039 12.8999 60.4535 12.6234 58.1722C12.4851 56.3057 12.3468 54.2318 11.9321 52.4344C12.0012 52.227 12.0012 52.0196 12.0012 51.7431C12.0012 51.3975 12.0703 51.0518 12.0703 50.7062C12.0703 50.084 12.1395 49.3927 12.1395 48.7705C12.1395 48.1484 12.1395 47.4571 12.1395 46.8349C12.1395 46.2127 12.2086 45.4523 11.9321 44.8993H11.8629C11.6555 45.5214 11.7247 46.2127 11.7247 46.8349C11.7247 47.4571 11.6555 48.1484 11.6555 48.7705C11.6555 49.3927 11.6555 50.084 11.5864 50.7062C11.5864 51.0518 11.5864 51.3975 11.5173 51.7431C11.5173 51.9505 11.5173 52.1579 11.5173 52.2962C11.0334 54.1627 10.9642 56.2366 10.826 58.1031C10.6186 60.5918 10.4112 63.0804 10.2038 65.5C9.78904 69.9934 9.44339 74.4869 8.89035 78.9803C7.50775 79.2568 6.12515 79.1877 4.74255 78.842C5.22646 69.4404 5.36472 60.0387 5.64124 50.637C5.71037 48.2175 5.84863 45.8671 5.84863 43.4475C6.05602 43.5858 6.26341 43.6549 6.53993 43.7241C7.8534 44.0006 9.16687 44.1388 10.4803 44.208C12.969 44.3462 15.4577 44.0697 17.8081 43.5167C17.8081 49.2545 18.0846 54.9922 18.2229 60.73C18.292 66.6061 18.4303 72.3438 18.7068 78.1507Z" fill="#473F97"/>
<path d="M11.7938 44.0006C11.7938 44.0006 8.95946 67.09 8.8212 69.5787C8.68294 72.0673 6.7473 79.6716 7.02382 79.6716C7.30034 79.6716 8.75207 79.0495 8.75207 79.0495L11.7938 52.7801V44.0006Z" fill="#372B7B"/>
<path d="M11.7938 44.3462C11.7938 47.1114 11.7938 49.9457 11.7938 52.7109C11.7938 52.9874 11.7938 53.264 11.8629 53.5405C11.932 53.8861 12.1394 54.2318 12.2777 54.5083C13.6603 57.1352 14.1442 60.1078 14.6281 63.0113C14.9046 64.6704 15.112 66.3295 15.3885 67.9886C15.9416 71.5834 16.4946 75.1781 16.9785 78.7729C17.7389 78.7038 18.4994 78.5655 19.2598 78.4964C18.9141 73.4499 18.7759 68.4034 18.7759 63.3569C18.7759 62.1817 18.7759 60.9374 18.7759 59.7622C18.6376 54.2318 17.6698 48.7014 17.7389 43.171C15.665 43.6549 13.522 43.8623 11.4481 43.724L11.7938 44.3462Z" fill="#372B7B"/>
<path d="M23.3385 43.7931C22.3706 38.4701 21.5411 33.2163 20.9189 27.8241C20.6424 25.612 20.5041 22.985 19.2598 20.9803C18.7759 20.2199 18.0846 19.5977 17.255 19.1138C16.4946 18.699 15.3885 18.0768 14.4898 18.0768C14.4898 17.9386 14.4898 17.8694 14.4898 17.7312C14.4898 17.5929 14.2825 17.5238 14.1442 17.5929C13.7294 17.4547 13.3838 17.1781 13.2455 16.7634C13.1764 16.556 13.1764 16.3486 13.1764 16.0721C13.1764 16.0029 13.2455 15.9338 13.2455 15.8647C14.4898 15.1734 15.3885 13.8599 15.5268 12.4082C16.4946 12.4082 17.3933 11.786 17.255 10.7491C17.1859 9.85037 16.2872 9.36646 15.5268 9.57385V9.50472C15.8033 9.02081 16.0798 8.5369 16.3563 7.98386C16.6329 7.49996 16.9094 6.94692 16.9785 6.39388C17.1168 5.70258 16.9094 4.94215 16.4255 4.52737C16.4946 4.45824 16.4946 4.31998 16.4946 4.25085C17.0476 3.76694 17.255 3.2139 17.0476 2.5226C16.7711 1.48566 15.8033 0.863488 14.7664 0.586968C13.6603 0.241319 12.4851 0.103059 11.3099 0.172189C10.2729 0.241319 9.23597 0.517838 8.26815 1.07088C7.85338 1.3474 7.50773 1.62392 7.16208 1.96957C6.81643 2.31521 6.60904 2.79912 6.33252 3.2139C6.19426 3.42129 5.98687 3.42129 5.71035 3.62868C5.50296 3.76694 5.3647 3.97433 5.29557 4.18172C5.08818 4.73476 5.15731 5.2878 5.3647 5.84084C5.57209 6.46301 5.84861 7.15431 6.12513 7.77647C6.33252 8.26038 6.53991 8.81342 6.7473 9.29733V9.57385C5.98687 9.36646 5.08818 9.9195 5.01905 10.7491C4.94992 11.786 5.77948 12.4773 6.7473 12.4082C6.88556 13.7216 7.57686 15.0351 8.75206 15.6573C8.75206 15.7955 8.82119 15.8647 8.82119 15.9338C8.89032 16.1412 8.89032 16.3486 8.95945 16.556C9.02858 16.9016 9.02858 17.1781 9.02858 17.5238C8.89032 17.8694 8.54467 18.2151 8.1299 18.2151C7.99164 18.2151 7.92251 18.2842 7.85338 18.4225C5.64122 19.3212 3.56732 20.4272 2.66863 22.7085C1.63169 25.0589 1.56256 27.755 1.49343 30.3128C1.4243 33.4237 1.14778 36.6036 1.00952 39.7145C0.940388 41.3736 0.802128 43.0327 0.871258 44.6227C0.871258 44.9683 0.802128 45.314 1.07865 45.5214C1.28604 45.6596 1.56256 45.7979 1.83908 45.867C1.76995 46.0053 1.63169 46.2127 1.63169 46.3509C1.56256 46.6275 1.56256 46.904 1.56256 47.1114C1.56256 47.6644 1.70082 48.2175 2.04647 48.7014C2.32299 49.1161 2.73776 49.5309 3.22167 49.7383C3.56732 49.9457 4.25862 50.2222 4.60427 49.9457V49.8766C4.6734 49.8074 4.74253 49.7383 4.6734 49.6692C4.60427 49.3235 4.46601 49.047 4.32775 48.7705C4.25862 48.6322 4.12036 48.494 4.05123 48.3557L3.9821 48.2866C4.12036 48.2175 4.25862 48.1483 4.39688 48.0101C4.6734 47.6644 4.6734 47.2496 4.60427 46.8349C4.53514 46.6275 4.53514 46.4201 4.46601 46.2127C4.46601 46.0744 4.46601 46.0053 4.46601 45.867C4.46601 45.7288 4.53514 45.6596 4.53514 45.5214L4.39688 45.4523L4.32775 45.3831C4.12036 45.314 3.84384 45.314 3.56732 45.314C3.35993 45.314 3.22167 45.314 3.01428 45.314C2.80689 45.2449 2.5995 45.2449 2.32299 45.1757C2.18473 45.1757 2.04647 45.1066 1.90821 45.0375C1.56256 45.0375 1.4243 44.8992 1.56256 44.5536C1.4243 44.0005 1.56256 43.171 1.56256 42.6179C1.56256 41.2353 1.63169 39.8527 1.70082 38.4701C1.83908 35.7741 2.04647 33.078 2.1156 30.3819C2.18473 28.0315 2.25386 25.612 3.01428 23.3307C3.84384 20.842 5.84861 19.7359 8.1299 18.7681C9.02858 19.7359 10.3421 20.289 11.6555 20.2199C12.4159 20.2199 13.1764 20.0125 13.7985 19.5286C14.0751 19.3212 14.2825 19.0446 14.4207 18.699C14.4898 18.5607 14.559 18.3533 14.559 18.2151C15.3194 18.7681 16.4255 18.9755 17.1859 19.4594C18.292 20.1507 18.9833 21.1877 19.3981 22.432C20.1585 24.7824 20.3659 27.2711 20.5733 29.6906C21.0572 34.4606 21.8867 39.2306 22.7854 44.0005C21.7485 44.6227 20.5733 44.9683 19.3289 45.0375L19.1907 44.8992C19.1215 44.8992 18.9833 44.8992 18.9833 45.0375C18.845 45.0375 18.7759 45.0375 18.6376 45.0375C18.5685 44.4844 18.4994 43.8623 18.4302 43.3092C18.5685 43.171 18.4994 42.9636 18.3611 42.8253C18.3611 42.7562 18.3611 42.6871 18.3611 42.6179C18.2229 39.6454 18.0155 36.7419 17.8772 33.7693C17.8081 32.2485 17.6698 30.6585 17.6007 29.1376C17.5316 27.6859 17.5316 26.0959 17.1859 24.6442C17.1859 24.575 17.0476 24.575 17.0476 24.6442C16.8403 26.2342 17.0476 27.8933 17.1168 29.4833C17.1859 31.0041 17.255 32.4558 17.3242 33.9767C17.4624 36.9493 17.6007 39.9219 17.7389 42.8945C15.4577 43.4475 13.1764 43.7931 10.826 43.724C9.58162 43.724 8.26816 43.5858 7.02382 43.3784C6.7473 43.3092 6.33252 43.3092 6.056 43.171C5.64122 42.9636 5.64122 42.6871 5.57209 42.2723C5.50296 41.6501 5.57209 41.0279 5.57209 40.4058C5.57209 37.9171 5.57209 35.4284 5.57209 32.9397C5.57209 30.4511 5.77948 27.8241 5.43383 25.3355C5.43383 25.2663 5.29557 25.2663 5.29557 25.3355C4.88079 28.1007 5.08818 31.0732 5.01905 33.8384C5.29557 36.6728 5.29557 39.5071 5.29557 42.4105C5.29557 42.8253 5.3647 43.1018 5.50296 43.2401C5.01905 47.7335 5.01905 52.3652 4.88079 56.9278C4.74253 61.836 4.60427 66.6751 4.39688 71.5834C4.32775 74.072 4.18949 76.6298 4.05123 79.1185V79.2568C3.77471 80.5011 3.2908 81.7454 2.59951 82.8515C2.25386 83.4046 1.90821 83.8885 1.70082 84.5106C1.56256 84.9945 1.4243 85.6167 1.97734 85.8932C2.53037 86.2389 3.2908 86.3771 3.91297 86.4463C4.53514 86.5154 5.15731 86.4463 5.71035 86.2389C6.26339 86.0315 6.67817 85.6859 7.02382 85.2711C7.4386 84.718 7.50773 84.0267 7.92251 83.4737C8.33729 82.8515 8.82119 82.4367 9.09771 81.7454C9.3051 81.0541 9.37423 80.3628 9.23597 79.6715V79.6024C9.85814 75.0398 10.2729 70.4081 10.6186 65.7764C10.826 63.2878 11.0334 60.7991 11.2407 58.3795C11.379 57.2043 11.5173 55.96 11.6555 54.7157C11.7938 55.8909 11.932 57.0661 12.0012 58.2413C12.2086 60.6608 12.4159 63.0112 12.6233 65.4308C12.969 69.9242 13.3838 74.4177 13.9368 78.842C13.9368 78.9802 14.0751 79.0494 14.2133 79.0494C14.1442 79.6715 14.0751 80.2246 14.1442 80.8468C14.2133 81.4689 14.4207 81.8837 14.9046 82.2294C15.1811 82.3676 15.4577 82.5059 15.6651 82.7133C15.8724 82.9207 16.0798 83.1972 16.2181 83.4737C16.5637 83.9576 16.8403 84.4415 17.3242 84.7872C18.3611 85.4093 19.6746 85.2019 20.7807 84.9946C21.3337 84.8563 21.8867 84.7872 22.025 84.165C22.1633 83.6119 21.8176 83.128 21.4028 82.7133C20.8498 82.0911 20.3659 81.4689 19.9511 80.7776C19.5363 80.0863 19.2598 79.395 18.9833 78.6346C19.0524 78.5655 19.0524 78.4963 19.0524 78.4272C18.7759 72.5512 18.6376 66.6751 18.4302 60.7991C18.292 55.0613 18.292 49.2544 17.7389 43.5166H17.8772C17.9463 44.1388 17.9463 44.8301 18.0155 45.4523C18.0155 45.7288 18.4994 45.7979 18.4994 45.4523C18.5685 45.4523 18.6376 45.4523 18.7759 45.4523C18.7759 45.7288 18.7759 46.0744 18.9142 46.3509C18.9833 46.5583 19.0524 46.7657 19.1907 46.904C19.3289 47.1114 19.4672 47.2496 19.6746 47.3879H19.7437C19.7437 47.5262 19.7437 47.7335 19.7437 47.8718C19.7437 47.9409 19.8128 48.0792 19.9511 48.0792C20.6424 48.0792 21.1954 47.3879 21.0572 46.6966C21.0572 46.6275 20.9189 46.5583 20.8498 46.5583C20.7807 46.5583 20.7115 46.6966 20.7115 46.7657C20.7807 47.1805 20.435 47.5953 20.0894 47.6644C20.0894 47.3188 20.0894 46.9731 20.0894 46.5583C20.0894 46.2127 20.0894 45.867 20.0202 45.5214C20.2968 45.5214 20.5733 45.4523 20.7807 45.4523C21.0572 45.3831 21.3337 45.314 21.6102 45.1757C21.6102 45.9362 21.6794 46.6275 21.6794 47.3879C21.7485 48.0792 21.7485 48.7014 21.1263 49.1853C20.7115 49.5309 20.0894 49.6692 19.5363 49.8074C19.1907 49.8766 18.9833 49.8074 18.9833 49.4618C18.9833 49.1853 18.9833 48.9779 19.0524 48.7014C19.0524 48.5631 18.9142 48.494 18.845 48.6322C18.5685 49.1161 18.3611 49.8766 18.9142 50.2222C19.2598 50.4296 19.6746 50.2913 20.0202 50.1531C20.3659 50.084 20.6424 49.9457 20.9881 49.8074C21.6794 49.4618 22.0941 48.9088 22.0941 48.0792C22.0941 47.5953 22.025 47.1114 22.025 46.6275C21.9559 46.0744 21.9559 45.5905 21.8867 45.1066C22.1633 44.9683 22.5089 44.8301 22.7854 44.6918C22.9237 44.6918 23.0619 44.6227 23.0619 44.5536C23.6841 44.2079 23.615 43.8623 23.3385 43.7931ZM3.70558 45.867C3.84384 45.867 4.05123 45.9362 4.18949 45.9362V46.0053C4.18949 46.2127 4.18949 46.3509 4.18949 46.5583C4.25862 46.904 4.32775 47.2496 4.25862 47.5953C4.18949 47.8027 4.05123 48.0101 3.84384 48.0101C3.77471 48.0101 3.70558 48.0101 3.63645 47.9409C3.56732 47.8027 3.56732 47.5953 3.56732 47.457C3.56732 46.9731 3.56732 46.5583 3.56732 46.0744C3.63645 46.0053 3.70558 45.9362 3.70558 45.867ZM2.25386 45.9362C2.66863 46.0053 3.01428 46.0744 3.35993 46.1436C3.2908 46.6275 3.2908 47.0422 3.22167 47.457C3.22167 47.6644 3.15254 47.8718 3.2908 48.0792C3.35993 48.2175 3.49819 48.3557 3.70558 48.3557H3.84384L3.9821 48.5631C4.05123 48.7014 4.12036 48.8396 4.18949 48.9087C4.25862 49.1161 4.32775 49.3235 4.39688 49.5309C4.32775 49.5309 4.25862 49.5309 4.18949 49.4618C3.9821 49.3927 3.77471 49.3235 3.63645 49.2544C3.22167 49.047 2.94515 48.7014 2.66863 48.3557C2.04647 47.6644 2.04647 46.7657 2.25386 45.9362ZM13.2455 19.1138C12.7616 19.3903 12.1394 19.5286 11.5173 19.5286C10.4803 19.5286 9.51249 19.1829 8.75206 18.5607C9.02858 18.4225 9.23597 18.2151 9.37423 17.9386C9.51249 17.9386 9.58162 17.8694 9.65075 17.7312C9.71988 17.3164 9.65075 16.9016 9.51249 16.4868C9.44336 16.2795 9.44336 16.0721 9.37423 15.8647C9.65075 16.0029 9.9964 16.0721 10.3421 16.0721C10.6186 16.0721 10.6877 15.6573 10.4112 15.5882C8.68293 15.1042 7.50773 13.8599 7.50773 12.0625C7.50773 11.8551 7.30034 11.7169 7.16208 11.786C6.53991 11.9243 5.77948 11.5786 5.77948 10.8182C5.77948 10.1269 6.53991 9.78124 7.09295 10.196C7.30034 10.3343 7.50773 10.1269 7.50773 9.9195V9.71211C7.57686 9.71211 7.57686 9.64298 7.57686 9.57385C7.57686 9.29733 7.50773 9.08994 7.50773 8.81342C7.50773 7.77647 7.50773 6.80866 7.50773 5.77171L7.57686 5.63345C7.64599 5.35693 7.71512 5.08041 7.71512 4.73476V4.66563C9.58162 5.35693 11.6555 5.70258 13.6603 5.42606C14.0059 5.42606 14.3516 5.35693 14.6972 5.21867C14.8355 5.2878 14.9738 5.35693 15.112 5.35693C15.0429 5.77171 15.112 6.11736 15.112 6.53214C15.112 7.63822 15.112 8.74429 15.112 9.85037C15.112 10.0578 15.3885 10.2652 15.5268 10.1269C16.0798 9.71211 16.8403 10.0578 16.8403 10.7491C16.8403 11.4404 16.0798 11.8551 15.4577 11.7169C15.2503 11.7169 15.112 11.786 15.112 11.9934C15.112 13.929 13.6603 15.2425 11.8629 15.7955C11.6555 15.8647 11.6555 16.2795 11.932 16.2795C12.2777 16.2103 12.6233 16.1412 12.8999 16.0029C12.8307 16.2795 12.8307 16.556 12.8999 16.8325C12.969 17.109 13.1072 17.3855 13.3146 17.5929C13.522 17.8003 13.7294 17.9386 14.0059 18.0077C13.8677 18.4916 13.5912 18.9064 13.2455 19.1138ZM8.54468 81.4689C8.33729 82.022 7.99164 82.4367 7.64599 82.8515C6.95469 83.6811 6.88556 84.9254 5.91774 85.5476C4.88079 86.1698 3.56732 85.9624 2.46125 85.5476C2.32299 85.4785 2.18473 85.4785 2.1156 85.3402C2.04647 85.2019 2.1156 84.9945 2.1156 84.8563C2.18473 84.5798 2.32299 84.3033 2.46125 84.0267C2.73776 83.5428 3.08341 83.0589 3.35993 82.5059C3.84384 81.5381 4.18949 80.5011 4.39688 79.395C5.77948 79.7407 7.23121 79.8098 8.68293 79.6024C8.68293 79.6715 8.68293 79.7407 8.68293 79.8098C8.75206 80.3628 8.75206 80.9159 8.54468 81.4689ZM20.2276 81.6763C20.5733 82.1602 20.9189 82.575 21.2646 82.9898C21.472 83.1972 21.6794 83.4046 21.6794 83.6811C21.7485 84.0959 21.4028 84.2341 21.1263 84.3033C20.1585 84.5798 18.9142 84.8563 17.9463 84.3724C16.9785 83.8885 16.7711 82.7824 15.9416 82.1602C15.7342 82.022 15.4577 81.8837 15.2503 81.7454C14.9046 81.5381 14.7664 81.2615 14.6972 80.9159C14.559 80.2937 14.6281 79.6024 14.559 78.9802V78.9111C15.9416 79.1185 17.3242 79.0494 18.7068 78.7037C19.0524 79.7407 19.6055 80.7776 20.2276 81.6763ZM18.1537 60.7991C18.292 66.606 18.4302 72.4129 18.7068 78.1507C17.3242 78.4963 15.9416 78.5655 14.559 78.2889C14.0059 73.9338 13.6603 69.5786 13.2455 65.1543C13.0381 62.8039 12.8999 60.4534 12.6233 58.103C12.4851 56.2365 12.3468 54.1626 11.932 52.3652C12.0012 52.1579 12.0012 51.9505 12.0012 51.6739C12.0012 51.3283 12.0012 50.9826 12.0703 50.637C12.0703 50.0148 12.1394 49.3235 12.1394 48.7014C12.1394 48.0792 12.1394 47.3879 12.1394 46.7657C12.1394 46.1436 12.1394 45.3831 11.932 44.8301H11.8629C11.6555 45.4523 11.7246 46.1436 11.7246 46.7657C11.7246 47.3879 11.6555 48.0792 11.6555 48.7014C11.6555 49.3235 11.6555 50.0148 11.5864 50.637C11.5864 50.9826 11.5864 51.3283 11.5173 51.6739C11.5173 51.8813 11.4481 52.0887 11.5173 52.227C11.0333 54.0935 10.9642 56.1674 10.7568 58.0339C10.5494 60.5226 10.3421 63.0112 10.1347 65.4308C9.71988 69.9242 9.37423 74.4177 8.82119 78.9111C7.4386 79.1876 6.056 79.1185 4.6734 78.7729C5.15731 69.3712 5.29557 59.9695 5.57209 50.5679C5.64122 48.1483 5.77948 45.7288 5.77948 43.3784C5.98687 43.5166 6.19426 43.5858 6.47078 43.6549C7.78425 43.9314 9.09771 44.0697 10.4112 44.1388C12.8999 44.2771 15.3885 44.0005 17.7389 43.4475C17.7389 49.2544 18.0155 55.0613 18.1537 60.7991ZM19.9511 46.5583C19.9511 46.6275 19.9511 46.7657 19.9511 46.8349C19.6055 46.4201 19.3981 46.0053 19.3981 45.4523C19.6055 45.4523 19.7437 45.4523 19.9511 45.4523C19.9511 45.867 19.9511 46.2127 19.9511 46.5583Z" fill="#372B7B"/>
<path d="M8.75208 2.17699L8.95946 2.24612C9.30511 2.17699 9.58163 2.03873 9.92728 1.9696C10.2729 1.90047 10.5495 1.83134 10.8951 1.76221C11.2408 1.76221 11.5173 1.69308 11.8629 1.76221C12.2086 1.76221 12.5542 1.83134 12.8307 1.83134C13.1073 1.83134 13.1764 1.41656 12.8999 1.2783C12.2777 1.14004 11.5173 1.14004 10.826 1.2783C10.1347 1.34743 9.37424 1.55482 8.82121 1.90047C8.75208 1.9696 8.75208 2.03873 8.75208 2.17699Z" fill="white"/>
<path d="M14.559 2.10784C14.559 1.90045 14.4899 1.76219 14.4899 1.5548L14.4207 1.62393L14.2825 1.69306V1.83132V1.96958V2.03871L14.3516 2.10784H14.4207H14.559L14.6973 2.03871L14.7664 1.96958L14.8355 1.90045V1.76219V1.69306L14.7664 1.5548L14.6973 1.48567L14.559 1.41654H14.4207L14.3516 1.48567L14.2825 1.69306V1.83132V1.90045L14.3516 2.03871L14.4207 2.10784H14.559Z" fill="white"/>
<path d="M73.6651 71.1686L74.2181 77.8051C74.2181 77.8051 73.4577 77.3903 73.3194 79.1185C73.112 80.8468 73.0429 81.7455 74.0798 82.2294C75.1168 82.7133 76.0155 84.3033 76.3611 84.4415C76.7068 84.5798 77.4672 85.5476 79.3337 85.0637C81.2002 84.5798 80.9928 84.0959 80.6472 83.3355C80.3015 82.575 78.3659 81.1233 78.0894 79.6024C77.8128 78.0816 76.6376 77.6668 76.6376 77.6668L76.9142 70.6847L73.6651 71.1686Z" fill="white"/>
<path d="M75.3242 71.3069L75.739 77.8742C75.739 77.8742 76.0155 77.9433 76.7068 78.5655C77.3981 79.1877 78.2277 81.7455 78.5042 82.2985C78.7807 82.8516 80.025 83.2663 79.1955 83.9576C78.4351 84.6489 76.4303 84.5107 76.4303 84.5107C76.4303 84.5107 77.0525 85.4785 79.4029 85.1328C81.7533 84.7872 81.3385 84.2342 80.7163 83.4046C80.0942 82.575 78.7116 80.7777 78.1585 79.6716C77.6055 78.5655 77.6055 78.1507 76.7068 77.7359C76.9833 73.5882 76.9142 70.9612 76.9142 70.9612L75.3242 71.3069Z" fill="#E1E1FF"/>
<path d="M64.9548 71.0303C64.6782 71.376 64.4708 77.0446 64.4708 77.0446C64.4708 77.0446 63.4339 76.9064 62.8809 78.7038C62.3278 80.5011 61.9822 82.4368 60.9452 83.7502C59.9083 85.0637 60.6687 86.2389 62.2587 86.2389C63.8487 86.2389 65.2313 86.308 65.9226 84.2341C66.6139 82.1602 67.4434 82.9207 67.6508 81.1233C67.9965 78.2198 67.0978 78.6346 67.0978 78.6346L67.9965 71.1686L64.9548 71.0303Z" fill="white"/>
<path d="M60.5304 85.0637C61.0834 85.2711 61.7747 85.4094 62.3969 85.3402C62.6043 85.3402 62.8808 85.2711 63.0882 85.1328C63.2265 84.9946 63.3647 84.7872 63.4338 84.5798C64.1943 82.8516 65.1621 81.1233 66.2682 79.6025C66.3373 79.4642 66.4756 79.3259 66.4064 79.1877C66.3373 78.7729 65.7843 78.842 65.646 78.5655C65.4386 78.2199 65.646 77.4594 65.646 77.1138C65.7151 75.9386 65.9225 74.8325 66.0608 73.6573C66.199 72.8969 66.3373 72.2056 66.4756 71.5143C66.9595 71.5143 67.5125 71.3069 67.9273 71.3069C67.0286 73.3808 67.5816 75.7312 67.1669 77.9433C67.0977 78.2199 67.0286 78.4964 66.9595 78.7038C67.1669 78.5655 67.3743 78.9803 67.4434 79.2568C67.5125 79.9481 67.5125 80.7085 67.5125 81.3998C67.5125 81.6072 67.5125 81.8837 67.4434 82.0911C67.3051 82.4368 67.0977 82.6442 66.8903 82.9207C66.5447 83.3355 66.199 83.8194 65.9225 84.3033C65.7843 84.5798 65.5769 84.9255 65.3695 85.202C64.8856 85.8241 64.1251 86.1007 63.3647 86.1007C62.6043 86.1698 61.8439 85.9624 61.0834 85.755L60.5304 85.0637Z" fill="#E1E1FF"/>
<path d="M78.5733 45.314C78.5042 46.0053 78.919 46.6966 79.5411 46.904C79.6103 47.1114 79.6103 47.3879 79.6103 47.5953C79.6103 47.8027 79.472 48.0792 79.2646 48.2174C79.1955 48.2866 79.0572 48.2866 78.9881 48.3557C78.6424 48.5631 78.5733 49.047 78.5733 49.4618C78.5733 49.6 78.5733 49.7383 78.6424 49.8074C78.7116 49.8766 78.8498 49.8765 78.9881 49.8765C79.6103 49.8074 80.2324 49.6 80.8546 49.3235C82.3755 48.6322 82.0298 45.9361 81.2002 44.8992C80.9237 44.9683 78.5733 45.1757 78.5733 45.314Z" fill="white"/>
<path d="M61.5674 45.4523C61.2217 45.5905 61.1526 46.0053 61.1526 46.351C61.1526 47.1114 61.2908 47.941 61.7056 48.5631C62.1895 49.3236 63.0882 49.8075 63.9869 49.8766C63.9869 49.3236 63.7795 48.7014 63.3647 48.2866C63.5721 48.2866 63.7795 48.0792 63.9178 47.8718C63.9869 47.6644 64.056 47.3879 64.056 47.1805C64.056 46.6966 63.9869 46.2127 63.8486 45.7288C63.4339 45.5214 62.95 45.3832 62.5352 45.3832L61.5674 45.4523Z" fill="white"/>
<path d="M65.0239 42.8253C64.8856 42.687 64.4708 71.0994 64.4708 71.0994C64.4708 71.0994 67.4434 71.7907 69.0334 71.2377C70.2777 58.103 71.4529 52.3652 71.4529 52.3652L72.6973 70.9612C72.6973 70.9612 74.149 72.1364 77.0525 70.6846C77.1907 65.1542 77.3981 43.3092 77.3981 43.3092C77.3981 43.3092 67.9965 45.4522 65.0239 42.8253Z" fill="#7777FF"/>
<path d="M71.1073 44.1388L72.006 48.3557C72.006 48.3557 74.2181 52.8492 74.4255 55.1305C74.6329 57.4118 75.6007 59.9696 74.9786 60.2461C74.4255 60.5226 72.9738 60.7991 73.7342 61.1448C74.4947 61.4904 74.8403 61.6287 74.8403 61.6287L74.9786 71.4451L77.1216 71.3069L77.329 43.3093C77.3981 43.2401 73.3195 44.9684 71.1073 44.1388Z" fill="#6363EB"/>
<path d="M66.8212 71.3069C66.8212 71.3069 67.789 62.9422 67.789 62.1126C67.789 61.283 66.8212 61.0065 66.3373 60.4535C65.8534 59.9004 67.5125 60.73 67.9272 60.0387C68.342 59.3474 69.7246 52.9874 70.0703 50.8444C70.4159 48.7014 71.3146 46.4201 71.3146 46.4201L71.5911 53.3331L69.0333 71.2377L66.8212 71.3069Z" fill="#6363EB"/>
<path d="M60.6687 45.314C62.8117 45.8671 64.7474 45.5906 64.7474 45.5906L65.0239 42.8945C65.0239 42.8945 66.8904 44.208 70.8999 44.1388C74.9095 44.0697 77.6747 42.9636 77.6747 42.9636L78.1586 45.4523C78.1586 45.4523 80.0942 45.5906 82.5137 44.208C81.9607 39.9911 80.509 30.935 80.3016 29.2068C80.0942 27.5477 79.7485 24.1603 78.9881 21.879C78.2277 19.5977 74.0108 18.0077 74.0108 18.0077C74.0108 18.0077 72.7664 24.5751 72.2134 26.3033C71.6604 28.0316 71.1764 30.2437 71.1764 30.2437C71.1764 30.2437 69.0334 23.8147 68.5495 22.3629C68.0656 20.8421 68.2039 19.3212 68.2039 19.3212L67.3052 18.3534C67.3052 18.3534 63.6413 19.736 62.3278 22.916C61.2217 26.1651 61.0144 35.9815 61.0144 35.9815L60.6687 45.314Z" fill="#473F97"/>
<path d="M76.3612 10.8182C76.3612 11.5786 75.6007 11.9243 74.9786 11.786C74.7712 11.7169 74.6329 11.8552 74.6329 12.0625C74.6329 12.9612 73.9416 13.7217 73.3886 14.413C72.8355 15.0351 72.2825 15.6573 71.8677 16.3486C71.7295 16.556 72.0751 16.8325 72.2134 16.6251L72.3516 16.4869C72.3516 16.6251 72.3516 16.7634 72.4207 16.9016C72.4899 17.1782 72.6281 17.4547 72.8355 17.6621C73.0429 17.8695 73.2503 17.9386 73.5268 18.0768C73.3886 18.4916 73.112 18.9064 72.6973 19.1138C72.2134 19.3903 71.5912 19.5286 70.969 19.5286C70.0012 19.5286 68.9643 19.1829 68.2038 18.5608C68.4803 18.4225 68.6877 18.2151 68.826 17.9386C68.9643 17.9386 69.0334 17.8695 69.1025 17.7312C69.1716 17.3164 69.1025 16.8325 68.9643 16.4177C68.8951 16.2795 68.8951 16.0721 68.826 15.9338C68.8951 16.0029 68.9643 16.0721 69.0334 16.1412C69.2408 16.3486 69.5173 16.0721 69.379 15.8647C68.6877 14.5512 66.9595 13.5834 66.8904 11.9934C66.8904 11.786 66.683 11.7169 66.5447 11.7169C65.9225 11.8552 65.1621 11.5095 65.1621 10.7491C65.1621 10.0578 65.9225 9.71213 66.4756 10.1269C66.683 10.2652 66.8904 10.0578 66.8904 9.85039V9.71213C67.0286 9.643 67.0977 9.57387 67.0977 9.43561C66.8904 7.98388 66.8904 6.46302 67.0286 5.0113C67.3051 5.21869 67.5817 5.35695 67.9273 5.49521C68.273 5.7026 68.6186 5.90999 68.9643 6.04825C69.4482 6.25564 70.0703 6.25564 70.3469 5.77173C70.4851 5.56434 70.5542 5.35695 70.5542 5.14956C71.7294 5.97912 73.2503 6.80867 74.5638 6.39389C74.5638 7.5691 74.4946 8.74431 74.5638 9.85039C74.5638 10.0578 74.8403 10.2652 74.9786 10.1269C75.6007 9.78126 76.3612 10.1269 76.3612 10.8182Z" fill="white"/>
<path d="M68.0655 4.73482C67.8581 4.59656 67.789 5.01134 67.9273 5.21873C68.2729 5.77177 68.6186 6.32481 69.2407 6.60133C69.8629 6.87785 70.6233 6.80872 70.969 6.25568C71.5912 6.94698 72.4207 7.50002 73.3194 7.77654C73.4577 9.43565 73.5959 11.1639 73.0429 12.6848C72.559 14.2747 71.2455 15.7265 69.6555 15.9339C70.0012 16.3486 70.5542 16.556 71.1073 16.4869C71.522 17.4547 71.5912 18.6299 71.2455 19.6669C72.4899 19.736 73.8033 18.9064 74.2181 17.6621C73.3885 17.593 72.6972 16.8326 72.6281 16.003C73.8033 14.966 74.702 13.5143 75.0477 11.9243C75.739 12.2008 76.6376 11.5787 76.6376 10.8183C76.6376 10.0578 75.6698 9.43565 74.9785 9.7813C75.0477 8.60609 75.0477 7.43089 75.1168 6.25568C75.1168 5.91003 75.1168 5.56438 74.9785 5.21873C74.8403 4.94221 74.5637 4.73482 74.3564 4.59656C73.4577 3.97439 72.4898 3.49048 71.3838 3.42135C70.2777 3.35222 69.1716 3.69787 68.4803 4.52743L68.0655 4.73482Z" fill="#E1E1FF"/>
<path d="M69.2407 8.9517V8.81344C69.2407 8.74431 69.1716 8.67518 69.1024 8.60605C69.0333 8.53692 68.9642 8.53692 68.895 8.60605C68.8259 8.60605 68.7568 8.67518 68.6877 8.74431C68.5494 9.02083 68.5494 9.29735 68.6185 9.50474C68.6185 9.57387 68.6877 9.643 68.7568 9.71213C68.8259 9.78126 68.895 9.78126 68.9642 9.71213C69.0333 9.71213 69.1024 9.643 69.1716 9.57387C69.2407 9.50474 69.2407 9.43561 69.1716 9.36648V9.22822C69.1716 9.15909 69.1716 9.15909 69.1716 9.08996C69.1716 9.08996 69.1716 9.02083 69.2407 8.9517L69.1716 9.08996L69.2407 8.9517Z" fill="#372B7B"/>
<path d="M72.8355 8.74434C72.7663 8.67521 72.6972 8.67521 72.6281 8.67521C72.559 8.67521 72.4898 8.67521 72.4207 8.74434C72.3516 8.81347 72.3516 8.8826 72.3516 8.95173C72.3516 9.08999 72.3516 9.29738 72.3516 9.43564C72.3516 9.50477 72.4207 9.64303 72.4207 9.64303C72.4898 9.71216 72.559 9.71216 72.6281 9.71216C72.6972 9.71216 72.8355 9.71216 72.8355 9.64303C72.9046 9.5739 72.9737 9.50477 72.9046 9.43564C72.9046 9.22825 72.9046 9.08999 72.9046 8.8826C72.9737 8.8826 72.9046 8.81347 72.8355 8.74434Z" fill="#372B7B"/>
<path d="M70.8307 13.9981C71.3837 13.9981 71.7985 13.7908 72.2133 13.376C72.4207 13.1686 72.075 12.8229 71.8677 13.0303C71.5911 13.3068 71.1764 13.4451 70.8307 13.4451C70.4159 13.5142 70.0011 13.4451 69.6555 13.1686C69.5864 13.0995 69.4481 13.1686 69.379 13.2377C69.3098 13.3068 69.379 13.4451 69.4481 13.5142C69.8629 13.929 70.3468 14.0673 70.8307 13.9981Z" fill="#372B7B"/>
<path d="M70.4159 12.6156C70.5542 12.6156 70.6233 12.6156 70.7616 12.6156C70.8998 12.6156 71.0381 12.6156 71.1072 12.5464C71.2455 12.4773 71.3146 12.4773 71.4529 12.4082C71.522 12.339 71.5911 12.2699 71.522 12.2008C71.4529 12.1316 71.3837 12.0625 71.3146 12.0625C71.1764 12.0625 71.1763 12.0625 71.0381 12.1316C70.8998 12.1316 70.8307 12.2008 70.6924 12.2008H70.6233H70.4159C70.3468 12.2008 70.2777 12.2008 70.2085 12.2699L70.1394 12.4082L70.2085 12.5464C70.2777 12.6156 70.3468 12.6156 70.4159 12.6156Z" fill="#372B7B"/>
<path d="M82.7902 43.7932C81.8224 38.4702 80.9928 33.2163 80.4398 27.8242C80.1633 25.612 80.025 22.9851 78.8498 20.9803C78.3659 20.2199 77.6746 19.5977 76.8451 19.1138C76.0846 18.699 74.9785 18.0768 74.0799 18.0768C74.0799 18.0077 74.0799 17.9386 74.0799 17.8695C74.0799 17.8003 74.0799 17.8003 74.0799 17.7312C74.0799 17.5929 73.8725 17.5238 73.7342 17.5929C73.3194 17.4547 72.9738 17.1782 72.9046 16.7634C72.8355 16.556 72.8355 16.3486 72.8355 16.0721C72.8355 16.003 72.9046 15.9338 72.9046 15.8647C73.3194 15.3808 73.7342 14.8969 74.149 14.413C74.6329 13.7908 75.0477 13.1686 75.1859 12.4082C76.1538 12.4082 77.0524 11.786 76.9142 10.6799C76.845 9.78126 75.9464 9.29735 75.1859 9.50474V9.15909C75.5316 8.05301 75.739 6.87781 75.6698 5.77173C75.8772 5.49521 75.9464 5.14956 76.0155 4.80391C76.0846 3.90522 75.6007 3.07566 75.0477 2.45349C73.9416 1.20916 72.3516 0.379598 70.6925 0.172208C69.1716 -0.0351814 67.236 0.241338 66.199 1.55481C65.5769 2.31523 65.5769 3.28305 66.0608 4.04348C66.1299 4.11261 66.1299 4.18174 66.199 4.25087C65.5769 5.0113 65.5078 5.97912 65.646 6.87781C65.7843 7.77649 66.1299 8.67518 66.4756 9.57387C65.7151 9.36648 64.8165 9.91952 64.7473 10.7491C64.6091 11.786 65.5769 12.4773 66.5447 12.4082C66.7521 13.5834 67.6508 14.6204 68.4803 15.519C68.4803 15.5882 68.4803 15.6573 68.4803 15.7264C68.4803 15.7956 68.5495 15.9338 68.5495 16.003C68.6186 16.2103 68.6186 16.4177 68.6877 16.6251C68.7569 16.9708 68.7569 17.3164 68.7569 17.5929C68.6186 17.9386 68.2729 18.2842 67.8582 18.2842C67.7199 18.2842 67.6508 18.3534 67.6508 18.4916C65.4386 19.3903 63.3647 20.4273 62.3969 22.7777C61.36 25.1972 61.2908 27.8242 61.2217 30.382C61.0834 33.4928 60.876 36.6728 60.7378 39.7836C60.6687 41.4427 60.5304 43.1019 60.5995 44.6918C60.5995 45.0375 60.5304 45.3831 60.8069 45.5905C61.0143 45.7288 61.2908 45.8671 61.5673 45.9362C61.4982 46.0744 61.36 46.2818 61.36 46.4201C61.2908 46.6966 61.2908 46.9731 61.2908 47.1805C61.2908 47.7336 61.4291 48.2866 61.7747 48.7705C62.0513 49.1853 62.466 49.6001 62.9499 49.8075C63.2956 50.0149 63.9869 50.2914 64.3325 50.0149C64.4017 49.9457 64.4708 49.8766 64.4017 49.8075C64.3325 49.5309 64.1943 49.1853 64.056 48.9088C63.9869 48.7705 63.8486 48.6323 63.7795 48.494C63.7795 48.494 63.7795 48.494 63.7104 48.4249C63.8486 48.3557 63.9869 48.2866 64.1252 48.1483C64.4017 47.8027 64.4017 47.3879 64.3325 46.9731C64.2634 46.7657 64.2634 46.5584 64.1943 46.351C64.1943 46.2127 64.1943 46.1436 64.1943 46.0053C64.1943 45.8671 64.2634 45.7979 64.2634 45.6597C64.2634 45.5905 64.1943 45.5905 64.1252 45.5905L64.056 45.5214C63.8486 45.4523 63.5721 45.4523 63.2956 45.4523C63.0882 45.4523 62.9499 45.4523 62.7426 45.3831C62.5352 45.314 62.3278 45.314 62.1204 45.2449C61.9821 45.1758 61.8439 45.1758 61.6365 45.1066C61.2908 45.1066 61.1526 44.9684 61.2908 44.6227C61.1526 44.0697 61.2908 43.2401 61.2908 42.6871C61.2908 41.3045 61.36 39.9219 61.4291 38.5393C61.5673 35.8432 61.7747 33.1472 61.8439 30.4511C61.913 28.1007 61.9821 25.6811 62.7426 23.3998C63.4339 21.4642 64.8165 20.3581 66.4756 19.4594C66.5447 20.7038 66.8903 21.879 67.1669 23.0542C67.5125 24.4368 67.8582 25.8194 68.2729 27.1329C68.6877 28.4463 69.1025 29.7598 69.5864 31.0041C70.0012 32.0411 70.416 33.078 71.1073 33.9767C71.0381 37.2258 71.1073 40.4058 71.1764 43.6549C71.0381 43.6549 70.8308 43.6549 70.6925 43.6549C69.4482 43.6549 68.2038 43.5166 66.8903 43.3093C66.6138 43.2401 66.199 43.2401 65.9225 43.1019C65.5077 42.8945 65.5078 42.618 65.4386 42.2032C65.3695 41.581 65.4386 40.9588 65.4386 40.3367C65.4386 37.848 65.4386 35.3593 65.5077 32.8706C65.5077 30.382 65.7151 27.755 65.3695 25.2664C65.3695 25.1972 65.2312 25.1972 65.2312 25.2664C64.8164 28.0315 65.0238 31.0041 64.9547 33.7693C64.7473 36.6728 64.7473 39.5071 64.7473 42.4106C64.7473 42.8253 64.8165 43.1019 64.9547 43.3093C64.4017 47.8718 64.5399 52.5727 64.4708 57.1352C64.4017 61.7669 64.3325 66.3986 64.1252 71.0303C64.1252 71.1686 64.1943 71.2377 64.3325 71.3069C64.4708 71.3069 64.5399 71.376 64.6782 71.376C64.5399 71.8599 64.5399 72.4129 64.5399 72.8968C64.4708 73.4499 64.4708 74.0029 64.4017 74.6251C64.3325 75.1781 64.2634 75.8003 64.2634 76.4225C64.2634 76.699 64.1943 76.9755 64.1943 77.252C64.1943 77.1829 64.1252 77.1138 63.9869 77.1138C63.503 77.3211 63.0882 77.5977 62.9499 78.0816C62.7426 78.6346 62.8117 79.2568 62.6734 79.8098C62.466 80.7085 62.1204 81.5381 61.7056 82.2985C61.2908 82.9898 60.8069 83.612 60.5304 84.3724C60.323 84.9946 60.1848 85.6859 60.876 85.9624C61.5673 86.308 62.3969 86.5154 63.2265 86.5154C63.9178 86.5154 64.6091 86.308 65.2312 85.8933C65.7843 85.4785 66.1299 84.9254 66.3373 84.3033C66.5447 83.8194 66.7521 83.4046 67.1669 83.0589C67.4434 82.7824 67.6508 82.4368 67.789 82.0911C68.1347 81.3307 68.2038 80.5011 68.0656 79.7407C68.0656 79.6716 68.0656 79.6024 68.0656 79.5333C68.0656 79.1877 67.9964 78.9111 67.9273 78.5655C67.8582 78.4272 67.7199 78.3581 67.5816 78.3581C67.5125 78.3581 67.5125 78.3581 67.5125 78.4272C67.5816 78.0816 67.5816 77.7359 67.6508 77.3903C67.7199 76.7681 67.8582 76.0768 67.9273 75.4546C68.1347 74.2103 68.2729 72.966 68.3421 71.7908C68.6186 71.7908 68.9642 71.7216 69.2408 71.6525H69.3099C69.3099 71.6525 69.3099 71.6525 69.379 71.5834V71.5142V71.2377C69.8629 68.0578 70.2086 64.8778 70.4851 61.6287C70.6234 60.1078 70.7616 58.6561 70.8999 57.1352C70.969 56.3057 71.1073 55.4761 71.1764 54.7157C71.1764 54.5774 71.1764 54.4392 71.2455 54.2318C71.2455 54.37 71.2455 54.4392 71.2455 54.5083C71.3147 55.3379 71.3838 56.1674 71.4529 56.997C71.5912 58.5178 71.6603 60.0387 71.6603 61.5595C71.7986 64.7395 72.006 67.9195 72.4899 71.0995C72.4899 71.0995 72.4899 71.1686 72.559 71.1686C72.559 71.1686 72.559 71.2377 72.6281 71.2377H72.6973C72.6973 71.2377 72.6973 71.2377 72.7664 71.2377C73.112 71.3069 73.4577 71.376 73.8033 71.376C73.7342 73.3807 74.2872 75.3855 74.3564 77.3903C74.3564 77.6668 74.8403 77.6668 74.7712 77.3903C74.702 75.3855 74.2872 73.3807 74.0107 71.376C74.9094 71.4451 75.8081 71.376 76.6377 71.1686C76.7759 73.2425 76.8451 75.3855 76.7759 77.4594C76.7759 77.5285 76.7759 77.5285 76.8451 77.5977C76.8451 77.6668 76.845 77.6668 76.9142 77.6668C76.7068 77.5285 76.4303 77.4594 76.2229 77.4594C75.9464 77.5285 75.3933 77.7359 75.1859 78.0125C75.1168 78.0125 75.0477 78.0124 75.0477 78.0816C75.0477 78.2198 74.9785 78.3581 74.9785 78.4964L74.9094 78.4272L74.8403 78.3581L74.7712 78.289L74.6329 78.1507C74.6329 78.0816 74.5638 78.0125 74.5638 78.0125C74.5638 77.9433 74.4946 77.8742 74.4946 77.8051L74.4255 77.6668L74.2872 77.5977H74.2181L74.149 77.6668V77.8051C74.149 77.8742 74.149 78.0124 74.149 78.0816C74.149 78.2198 74.2181 78.3581 74.2872 78.5655C74.3564 78.7037 74.4255 78.842 74.5638 78.9111C74.6329 78.9803 74.702 79.0494 74.7712 79.0494C74.8403 79.1185 74.9785 79.1877 75.0477 79.1185C75.1168 79.3259 75.1859 79.5333 75.2551 79.6716C75.5316 80.2246 75.739 80.7776 76.0155 81.3307C76.2229 81.7455 76.4994 82.2294 76.9833 82.3676C77.2598 82.4368 78.0894 82.3676 78.0203 81.8837C78.0203 81.8146 77.882 81.7455 77.8129 81.7455C77.6746 81.7455 77.5364 81.8837 77.3981 81.9529C77.2598 81.9529 77.0524 81.9529 76.9142 81.8146C76.5685 81.6072 76.4303 81.1233 76.2229 80.7776C76.0155 80.3629 75.8081 79.879 75.6007 79.4642C75.4625 79.2568 75.3933 79.0494 75.3242 78.7729C75.2551 78.6346 75.1859 78.4272 75.1859 78.289C75.1168 78.0124 75.5316 77.8742 75.739 77.8051C75.9464 77.7359 76.1537 77.7359 76.292 77.8051C76.4994 77.8742 76.5685 78.0816 76.6377 78.2198C76.7068 78.4964 76.845 78.7037 76.9142 78.9803C77.1216 79.4642 77.2598 79.9481 77.5364 80.432C77.6746 80.6394 77.7437 80.9159 77.882 81.1233C77.9511 81.2616 78.0203 81.3998 78.0894 81.4689C78.1585 81.6072 78.2276 81.6763 78.0894 81.8146C77.9511 81.8837 78.0203 82.0911 78.1585 82.0911C78.435 82.2294 78.6424 81.8146 78.5733 81.6072C78.5733 81.3998 78.435 81.2616 78.3659 81.1233C78.2968 80.985 78.2276 80.7776 78.1585 80.6394C77.8129 79.9481 77.5363 79.2568 77.2598 78.4964C77.1216 78.2198 77.0524 77.8742 76.8451 77.6668H76.9142C77.1907 77.7359 77.2598 78.0816 77.3981 78.289C77.4672 78.5655 77.6055 78.842 77.7437 79.1877C78.0203 79.8098 78.3659 80.432 78.7116 81.0542C79.0572 81.6072 79.472 82.1602 79.8868 82.6442C80.1633 82.9898 81.2002 83.8885 80.3707 84.2341C79.8176 84.5107 79.1263 84.5798 78.5042 84.5798C77.9511 84.6489 77.329 84.5798 76.7759 84.3033C76.2229 84.0268 75.9464 83.4737 75.6007 82.9898C75.3242 82.5059 74.9785 82.1602 74.4255 81.8837C74.0799 81.6763 73.8033 81.5381 73.6651 81.1233C73.5268 80.7776 73.5959 80.3629 73.5268 79.9481C73.5268 79.6024 73.5268 79.1877 73.5268 78.842C73.5268 78.6346 73.6651 77.3903 74.0107 77.4594C74.0799 77.4594 74.2181 77.3211 74.0799 77.252C72.9046 76.699 73.0429 80.5011 73.112 81.0542C73.1812 81.3998 73.3194 81.7455 73.5959 81.9529C73.8725 82.2294 74.2872 82.2985 74.5638 82.5059C75.1168 82.9898 75.3933 83.7502 75.9464 84.2341C77.0524 85.3402 78.7116 85.0637 80.0942 84.7872C80.4398 84.718 80.7855 84.6489 80.9928 84.3033C81.2002 84.0268 81.2002 83.6811 81.1311 83.4046C81.062 83.0589 80.8546 82.8515 80.5781 82.575C80.3015 82.2294 80.025 81.8837 79.7485 81.5381C79.1263 80.7085 78.6424 79.879 78.2276 78.9803C77.9511 78.4272 77.8129 77.252 77.0524 77.1829C77.1907 75.109 77.1907 73.0351 76.9833 70.9612C77.1216 70.8921 77.2598 70.8921 77.3981 70.8921C77.5364 70.8921 77.6055 70.7538 77.6055 70.6156C77.3981 65.9839 77.4672 61.3521 77.6055 56.7896C77.7437 52.2961 77.9511 47.7336 77.4672 43.2401C77.5364 43.2401 77.5363 43.2401 77.6055 43.2401C77.6746 43.8623 77.6746 44.5536 77.7437 45.1758C77.7437 45.4523 78.2276 45.4523 78.2276 45.1758C78.2968 45.1758 78.3659 45.1758 78.5042 45.1758C78.5042 45.4523 78.5042 45.7979 78.6424 46.0744C78.7116 46.2818 78.7807 46.4892 78.9189 46.6275C79.0572 46.8349 79.1955 46.9731 79.4029 47.1114H79.472C79.472 47.2497 79.472 47.3879 79.472 47.5953C79.472 47.6644 79.5411 47.8027 79.6794 47.8027C80.3707 47.8027 80.9237 47.1114 80.8546 46.4201C80.8546 46.351 80.7163 46.2818 80.6472 46.2818C80.5781 46.2818 80.5089 46.4201 80.5089 46.4892C80.5781 46.904 80.2324 47.3188 79.8868 47.3879C79.8868 47.0423 79.8868 46.6275 79.8868 46.2818C79.8868 45.9362 79.8868 45.5905 79.8176 45.2449C80.0942 45.2449 80.3707 45.1758 80.5781 45.1066C80.8546 45.0375 81.1311 44.9684 81.4076 44.8992C81.4076 45.6597 81.4768 46.351 81.4768 47.1114C81.5459 47.8027 81.5459 48.4249 80.9237 48.8396C80.4398 49.1853 79.8868 49.3236 79.3337 49.4618C78.9881 49.5309 78.7807 49.4618 78.7807 49.1162C78.7807 48.8396 78.7807 48.5631 78.8498 48.3557C78.8498 48.2175 78.7116 48.1483 78.6424 48.2866C78.3659 48.7705 78.1585 49.5309 78.7116 49.8075C79.0572 50.0149 79.472 49.8766 79.8176 49.7383C80.1633 49.6692 80.5089 49.5309 80.7855 49.3927C81.4768 49.047 81.8915 48.494 81.8915 47.7336C81.8915 47.2497 81.8224 46.7657 81.8224 46.2818C81.7533 45.7979 81.6841 45.2449 81.6841 44.761C81.9607 44.6227 82.3063 44.4845 82.5828 44.2771C82.7211 44.2771 82.7902 44.2079 82.8593 44.0697C83.1359 44.2079 83.0667 43.8623 82.7902 43.7932ZM63.1573 45.8671C63.3647 45.8671 63.503 45.9362 63.6412 45.9362V46.0053C63.6412 46.2127 63.6412 46.351 63.6412 46.5584C63.7104 46.904 63.7795 47.2497 63.7104 47.5953C63.6412 47.8027 63.503 48.0101 63.2956 48.0101C63.2265 48.0101 63.1573 48.0101 63.0882 47.941C63.0191 47.8027 63.0191 47.5953 63.0191 47.457C63.0191 46.9731 63.0191 46.5584 63.0191 46.0744C63.0882 46.0053 63.1573 45.9362 63.1573 45.8671ZM61.6365 45.9362C62.0513 46.0053 62.466 46.0744 62.7426 46.1436C62.6734 46.5584 62.6734 47.0423 62.6043 47.457C62.6043 47.6644 62.5352 47.941 62.6734 48.0792C62.7426 48.2175 62.8808 48.3557 63.0882 48.3557C63.1573 48.3557 63.1573 48.3557 63.2265 48.3557C63.2956 48.4249 63.2956 48.494 63.3647 48.5631C63.4339 48.7014 63.503 48.8396 63.5721 48.9088C63.6412 49.1162 63.7104 49.3235 63.7795 49.5309C63.7104 49.5309 63.6412 49.4618 63.5721 49.4618C63.3647 49.3927 63.1573 49.3235 63.0191 49.2544C62.6043 49.047 62.3278 48.7014 62.0513 48.3557C61.4982 47.6644 61.4291 46.7657 61.6365 45.9362ZM74.0799 18.2842C74.3564 18.4916 74.702 18.6299 75.0477 18.7681C74.702 21.326 74.4255 23.8838 73.8033 26.4416C73.2503 28.792 72.4207 31.0041 71.4529 33.2163C71.4529 32.2485 71.3838 31.2807 71.3147 30.3128C71.3838 30.2437 71.4529 30.2437 71.4529 30.1054C72.0751 28.1698 72.4899 26.2342 72.9046 24.2985C73.2503 22.5703 73.5268 20.7729 73.7342 19.0447C73.8033 18.9755 73.8725 18.8373 73.9416 18.7681C74.0107 18.5608 74.0799 18.4225 74.0799 18.2842ZM71.2455 20.2199C72.006 20.2199 72.7664 20.0125 73.3194 19.5286C72.9738 21.1186 72.6281 22.7085 72.2825 24.2294C71.8677 25.8885 71.3838 27.5476 70.969 29.2759C70.1395 25.9577 68.8951 22.7777 68.3421 19.3903C69.1716 19.9434 70.2086 20.289 71.2455 20.2199ZM68.826 18.0077C68.9642 18.0077 69.0334 17.9386 69.1025 17.8003C69.1716 17.3855 69.1025 16.9016 68.9642 16.4869C68.8951 16.3486 68.8951 16.1412 68.826 16.003C68.8951 16.0721 68.9642 16.1412 69.0334 16.2103C69.2408 16.4177 69.5173 16.1412 69.379 15.9338C68.6877 14.6204 66.9595 13.6525 66.8903 12.0625C66.8903 11.8552 66.683 11.786 66.5447 11.786C65.9225 11.9243 65.1621 11.5786 65.1621 10.8182C65.1621 10.1269 65.9225 9.78126 66.4756 10.196C66.683 10.3343 66.8903 10.1269 66.8903 9.91952V9.78126C67.0286 9.71213 67.0977 9.643 67.0977 9.50474C66.8903 8.05301 66.8904 6.53216 67.0286 5.08043C67.3051 5.28782 67.5816 5.42608 67.9273 5.56434C68.0656 5.63347 68.1347 5.7026 68.2729 5.77173C68.4803 5.90999 68.6877 5.97912 68.9642 6.11738C69.4482 6.32477 70.0703 6.32477 70.3468 5.84086C70.4851 5.63347 70.5542 5.42608 70.5542 5.21869C71.7294 6.04825 73.2503 6.87781 74.5638 6.46303C74.5638 7.63824 74.4946 8.81344 74.5638 9.91952C74.5638 10.1269 74.8403 10.3343 74.9785 10.196C75.5316 9.78126 76.292 10.1269 76.292 10.8182C76.292 11.5786 75.5316 11.9243 74.9094 11.786C74.702 11.7169 74.5638 11.8552 74.5638 12.0625C74.5638 12.9612 73.8725 13.7217 73.3194 14.413C72.7664 15.0351 72.2133 15.6573 71.7986 16.3486C71.6603 16.556 72.006 16.8325 72.1442 16.6251L72.2825 16.4869C72.2825 16.6251 72.2825 16.7634 72.3516 16.9016C72.4207 17.1782 72.559 17.4547 72.7664 17.6621C72.9738 17.8695 73.1812 17.9386 73.4577 18.0768C73.3194 18.4916 73.0429 18.9064 72.6281 19.1138C72.2134 19.3903 71.6603 19.5286 71.1764 19.5286C71.1073 19.5286 70.969 19.5286 70.8999 19.5286C69.9321 19.5286 68.8951 19.1829 68.1347 18.5608C68.4803 18.4916 68.6877 18.2842 68.826 18.0077ZM70.8999 33.2163C69.7247 31.2807 68.9642 28.8611 68.2729 26.7181C67.8582 25.4737 67.5125 24.2985 67.236 23.0542C66.9595 21.8099 66.7521 20.5655 66.3373 19.3903C66.7521 19.1829 67.236 18.9755 67.6508 18.7681C67.789 18.8373 67.8582 18.9755 67.9964 19.0447C68.2038 22.9851 69.9321 26.7181 70.7616 30.5202C70.7616 30.6585 70.8999 30.7276 70.969 30.7276C70.969 31.6263 70.969 32.4559 70.8999 33.2163ZM64.1943 78.6346C64.2634 78.6346 64.4017 78.6346 64.4708 78.6346C64.6782 78.6346 64.8856 78.7037 65.093 78.7037C65.4386 78.842 65.7843 78.9803 66.0608 79.3259C66.0608 79.3259 66.1299 79.3259 66.199 79.395C66.1299 79.4642 66.0608 79.5333 66.0608 79.6716C65.9917 79.8098 65.8534 79.9481 65.7843 80.1555C65.5769 80.432 65.4386 80.7776 65.2312 81.0542C65.0238 81.3307 64.8856 81.6072 64.6782 81.9529C64.4708 82.2294 64.3325 82.575 64.1943 82.8515C63.9869 82.7133 63.8486 82.6442 63.6412 82.575C63.503 82.5059 63.2956 82.5059 63.1573 82.5059H63.0882C63.3647 81.9529 63.5721 81.3998 63.7795 80.9159C63.9178 80.0863 64.1252 79.395 64.1943 78.6346ZM67.3743 79.4642C67.3743 79.6024 67.3743 79.7407 67.3743 79.879C67.3743 79.9481 67.3743 80.0172 67.3743 80.0863C67.3743 80.1555 67.4434 80.2246 67.4434 80.2937C67.4434 80.7776 67.3743 81.2616 67.1669 81.6763C66.8903 82.2985 66.4064 82.7133 66.0608 83.2663C65.7151 83.7502 65.646 84.3724 65.3004 84.9254C64.9547 85.4785 64.3325 85.755 63.7795 85.8933C63.0882 86.0315 62.3969 85.9624 61.7056 85.755C61.4982 85.6859 61.36 85.6167 61.1526 85.5476C60.8761 85.4093 60.8069 85.202 60.876 84.9254C60.9452 84.5798 61.0834 84.2341 61.2908 83.9576C61.9821 82.8515 62.6043 81.7455 63.0191 80.432C63.1573 79.879 63.2265 79.3259 63.2265 78.7037C63.2956 78.0125 63.4339 77.5977 64.1252 77.3212C64.1252 77.3212 64.1252 77.252 64.1943 77.252V77.3212C64.1943 77.5977 64.1252 77.9433 64.1252 78.289C64.1252 78.289 64.1252 78.289 64.056 78.289C63.9178 78.2198 63.7104 78.3581 63.7104 78.4964C63.5721 79.2568 63.4339 79.9481 63.2956 80.7085C63.1573 81.3307 62.9499 81.9529 62.7426 82.575H62.6734C62.6043 82.6442 62.5352 82.6441 62.5352 82.7824C62.5352 82.8515 62.6043 82.9207 62.6734 82.9207C62.7426 82.9207 62.7426 82.9207 62.8117 82.9207C62.8808 82.9207 63.0191 82.9207 63.0882 82.9207C63.1573 82.9207 63.2265 82.9207 63.2956 82.9207C63.3647 82.9207 63.4339 82.9207 63.503 82.9898C63.7795 83.0589 63.9869 83.1972 64.1943 83.4046C64.2634 83.4737 64.4708 83.4737 64.5399 83.4046C64.6091 83.3354 64.6782 83.1281 64.5399 83.0589C64.4708 82.9898 64.4017 82.9898 64.4017 82.9207C64.6091 82.6442 64.8856 82.4368 65.093 82.1602C65.3004 81.8837 65.5078 81.6072 65.7151 81.2616C65.9225 80.985 66.1299 80.7085 66.2682 80.3629C66.4064 80.2246 66.4756 80.0863 66.5447 79.879C66.5447 79.879 66.5447 79.879 66.5447 79.8098C66.8212 79.8098 67.0286 79.5333 67.1669 79.3259C67.236 79.1877 67.3051 79.1185 67.3743 78.9803V79.0494V79.1185C67.3743 79.2568 67.3743 79.395 67.3743 79.4642ZM67.3051 75.3855C67.236 76.0077 67.1669 76.5607 67.0977 77.1829C67.0286 77.5285 67.0286 77.8742 66.9595 78.2198C66.9595 78.3581 66.8903 78.5655 66.8903 78.7037C66.8212 78.842 66.7521 78.9111 66.683 79.0494L66.6138 79.1877V79.2568C66.6138 79.2568 66.6138 79.2568 66.6138 79.3259L66.5447 79.2568C66.5447 79.1877 66.5447 79.0494 66.4756 78.9803C66.1299 78.6346 65.7151 78.3581 65.2312 78.289C65.0238 78.2198 64.8164 78.2198 64.5399 78.2198C64.6091 78.0124 64.6091 77.7359 64.6091 77.5285C64.6091 77.1829 64.6782 76.8372 64.6782 76.5607C64.7473 76.0077 64.8165 75.3855 64.8165 74.7633C64.8856 74.2103 64.8856 73.6573 64.8856 73.0351C64.8856 72.7586 64.8856 72.4129 64.8856 72.1364C64.8856 71.929 64.8856 71.6525 64.8856 71.4451C65.8534 71.6525 66.8212 71.7216 67.789 71.6525C67.6508 72.8968 67.4434 74.1412 67.3051 75.3855ZM76.9833 57.0661C76.845 61.6287 76.7759 66.1221 76.9833 70.6847C75.6698 71.0303 74.2872 71.0995 72.9738 70.8229C72.559 67.643 72.3516 64.5321 72.2134 61.3521C72.1442 59.9004 72.0751 58.3796 72.006 56.9278C71.9368 55.4761 71.8677 53.817 71.5221 52.3653C71.5912 52.1579 71.5912 51.9505 71.5912 51.7431C71.5912 51.3975 71.6603 51.0518 71.6603 50.7062C71.6603 50.084 71.7294 49.3927 71.7294 48.7705C71.7294 48.1483 71.7294 47.457 71.7294 46.8349C71.7294 46.2127 71.7294 45.4523 71.5221 44.8992H71.3838C71.1764 45.5214 71.2455 46.2127 71.2455 46.8349C71.2455 47.457 71.1764 48.1483 71.1764 48.7705C71.1764 49.3927 71.1073 50.084 71.1073 50.7062C71.1073 51.0518 71.0381 51.3975 71.0381 51.7431C71.0381 51.9505 71.0381 52.0887 71.0381 52.227C70.6234 53.6787 70.5542 55.3378 70.416 56.7204C70.2777 58.2413 70.1395 59.8313 69.9321 61.3521C69.6555 64.5321 69.3099 67.7121 68.826 70.8921C67.4434 71.0995 66.1299 71.0995 64.8165 70.6847C65.0238 66.1221 65.093 61.5595 65.093 56.997C65.093 52.4344 65.3004 47.941 65.3004 43.3784C65.5078 43.5166 65.7151 43.5858 65.9917 43.5858C67.3051 43.8623 68.6186 44.0006 69.9321 44.0697C72.4207 44.2079 74.8403 43.9314 77.2598 43.3784C77.0524 48.0792 77.1907 52.5727 76.9833 57.0661ZM79.4029 46.5584C79.4029 46.6275 79.4029 46.7657 79.4029 46.8349C79.0572 46.4201 78.8498 46.0053 78.8498 45.4523C79.0572 45.4523 79.1955 45.4523 79.4029 45.4523C79.4029 45.8671 79.4029 46.2127 79.4029 46.5584ZM78.8498 45.0375C78.8498 44.9684 78.7807 44.9684 78.7116 44.8992C78.6424 44.8992 78.5042 44.8992 78.5042 45.0375C78.3659 45.0375 78.2968 45.0375 78.1585 45.0375C78.0894 44.4845 78.0203 43.8623 77.9511 43.3093C78.0894 43.171 78.0203 42.9636 77.882 42.8253C77.882 42.7562 77.882 42.6871 77.882 42.618C77.7437 39.6454 77.5364 36.7419 77.3981 33.7693C77.329 32.2485 77.1907 30.6585 77.1216 29.1376C77.0524 27.6168 77.0524 26.0959 76.7068 24.6442C76.7068 24.5751 76.5685 24.5751 76.5685 24.6442C76.3611 26.2342 76.5685 27.8933 76.6377 29.4833C76.7068 30.935 76.7759 32.4559 76.8451 33.9767C76.9833 36.9493 77.1216 39.9219 77.2598 42.8945C75.3242 43.3784 73.3194 43.6549 71.3147 43.724C71.3147 40.5441 71.3838 37.3641 71.3838 34.2532C72.4899 31.8337 73.3886 29.2759 74.0799 26.649C74.702 24.1603 75.1859 21.5333 75.1859 18.9755C75.739 19.1829 76.2229 19.3903 76.7068 19.6668C77.8129 20.3581 78.5042 21.3951 78.9189 22.6394C79.6794 24.9898 79.8868 27.4094 80.0942 29.8981C80.5781 34.668 81.4076 39.438 82.3063 44.2079C81.2694 44.6227 80.0942 44.9684 78.8498 45.0375Z" fill="#372B7B"/>
<path d="M68.342 19.3903C68.6877 21.4642 69.2407 23.3999 69.8629 25.4046C70.3468 23.6764 70.8998 22.0173 71.0381 20.2199C70.1394 20.2199 69.1716 19.9434 68.342 19.3903Z" fill="#E1E1FF"/>
<path d="M73.3194 19.5286C72.7663 20.0125 71.9368 20.2199 71.2455 20.2199C71.1763 20.2199 71.1763 20.2199 71.1072 20.2199C70.8998 22.0172 70.4159 23.6764 69.932 25.4046C70.3468 26.6489 70.6924 27.9624 71.0381 29.2068C71.4529 27.5476 71.9368 25.8885 72.3516 24.1603C72.6972 22.7085 73.0429 21.1186 73.3194 19.5286C73.3885 19.5286 73.3885 19.5286 73.3194 19.5286Z" fill="#B7B7FF"/>
<path d="M69.5172 7.43088C69.5172 7.29262 69.379 7.15436 69.3098 7.22349C68.9642 7.22349 68.6877 7.36175 68.342 7.50001C68.2729 7.56914 68.2038 7.63827 68.2729 7.77653C68.342 7.84566 68.4112 7.91479 68.4803 7.91479C68.6185 7.84566 68.7568 7.84566 68.8951 7.77653H68.9642H69.0333C69.1025 7.77653 69.1716 7.77653 69.2407 7.77653C69.379 7.63827 69.5172 7.56914 69.5172 7.43088Z" fill="#372B7B"/>
<path d="M72.4899 7.84566C72.559 7.84566 72.6972 7.84566 72.7664 7.84566C72.8355 7.84566 72.9738 7.84566 73.0429 7.84566C73.112 7.84566 73.1812 7.84565 73.2503 7.77652C73.3194 7.70739 73.3194 7.63826 73.3194 7.56914C73.3194 7.43088 73.1812 7.29262 73.0429 7.29262C72.9738 7.29262 72.8355 7.29262 72.7664 7.29262C72.6972 7.29262 72.559 7.29262 72.4899 7.29262L72.3516 7.36175L72.2825 7.50001L72.3516 7.63827C72.3516 7.77652 72.4207 7.84566 72.4899 7.84566Z" fill="#372B7B"/>
<path d="M71.1764 16.3486H71.0381H70.8999H70.7616H70.6925H70.6233C70.416 16.3486 70.2777 16.3486 70.0703 16.2795C70.0012 16.2795 69.932 16.2795 69.8629 16.3486C69.8629 16.4178 69.8629 16.556 69.932 16.556C70.1394 16.6251 70.3468 16.6943 70.6233 16.7634C70.7616 16.7634 70.8307 16.7634 70.969 16.7634C71.1073 16.7634 71.2455 16.6943 71.3146 16.6943C71.4529 16.6251 71.522 16.556 71.522 16.4178C71.4529 16.4178 71.3146 16.3486 71.1764 16.3486Z" fill="#372B7B"/>
<path d="M68.1347 38.4701C68.6186 38.4701 69.1025 38.4701 69.5173 38.4701C69.5864 38.4701 69.7246 38.401 69.7246 38.2627V38.1245C69.7246 38.0554 69.5864 37.9171 69.5173 37.9171C69.0334 37.9171 68.5494 37.9171 68.1347 37.9171C67.6508 37.9171 67.236 37.9171 66.7521 37.9171C66.4755 37.9171 66.4755 38.2627 66.7521 38.3319C67.236 38.401 67.6508 38.401 68.1347 38.4701Z" fill="#372B7B"/>
<path d="M75.6698 37.5715C75.5316 37.5715 75.3933 37.6406 75.255 37.7097C74.9785 37.7788 74.7711 37.848 74.4946 37.9171C74.2181 37.9862 74.0107 37.9862 73.7342 38.0554C73.5959 38.0554 73.4577 38.0554 73.3194 38.1245C73.1811 38.1245 73.0429 38.1936 72.9046 38.1936C72.7664 38.1936 72.6972 38.401 72.8355 38.4701C73.112 38.5393 73.3194 38.6084 73.6651 38.6084C73.9416 38.6084 74.149 38.6084 74.4255 38.6084C74.702 38.6084 74.9785 38.5393 75.255 38.4701C75.3933 38.401 75.5316 38.3319 75.6698 38.3319C75.8081 38.2628 75.9463 38.1936 75.9463 37.9862C76.0155 37.7097 75.8772 37.5715 75.6698 37.5715Z" fill="#372B7B"/>
<path d="M68.3421 1.8313C68.9642 1.69304 69.5864 1.69304 70.2086 1.76217C70.4851 1.8313 70.8307 1.90043 71.1073 1.96956C71.3838 2.03869 71.6603 2.17695 72.0059 2.31521C72.3516 2.45347 72.559 1.90043 72.2133 1.76217C71.6603 1.41652 70.8999 1.34739 70.2777 1.27826C69.5864 1.20913 68.8951 1.34739 68.2729 1.48565C68.0655 1.55478 68.1347 1.90043 68.3421 1.8313Z" fill="white"/>
<path d="M73.9416 3.00653L74.0108 2.9374L74.149 2.79914L74.2181 2.66088L74.149 2.52262L74.0108 2.38436L73.9416 2.31523C73.8725 2.31523 73.8034 2.2461 73.7342 2.2461C73.6651 2.2461 73.596 2.2461 73.5268 2.31523C73.3886 2.38436 73.3195 2.52262 73.3195 2.66088C73.3195 2.79914 73.3886 2.9374 73.5268 3.00653C73.596 3.00653 73.6651 3.07566 73.7342 3.07566C73.8034 3.07566 73.8725 3.07566 73.9416 3.00653Z" fill="white"/>
<path d="M36.7497 78.1507H26.9332V78.842H36.7497V78.1507Z" fill="#372B7B"/>
<path d="M27.832 80.2246V77.1138L24.1681 78.7038L27.832 80.2246Z" fill="#372B7B"/>
<path d="M57.9726 78.1507H48.8474V78.842H57.9726V78.1507Z" fill="#372B7B"/>
<path d="M57.1429 80.2246V77.1138L60.7377 78.7038L57.1429 80.2246Z" fill="#372B7B"/>
<path d="M41.5888 75.6621C41.4506 75.6621 41.174 75.6621 40.9666 75.7312C39.6532 75.9386 38.9619 76.9064 38.8236 77.9434C39.1001 77.5286 39.6532 77.2521 40.3445 77.2521C41.4506 77.2521 42.211 78.0125 42.211 79.2568C42.211 80.3629 41.4506 81.469 40.1371 81.469C38.8236 81.469 37.9249 80.4321 37.9249 78.8421C37.9249 77.5977 38.3397 76.6299 38.9619 76.0769C39.4458 75.593 40.1371 75.2473 40.9666 75.1782C41.2432 75.1091 41.4506 75.1091 41.5888 75.1091V75.6621ZM41.3814 79.2568C41.3814 78.3582 40.8975 77.8051 40.068 77.8051C39.584 77.8051 39.1001 78.1508 38.8927 78.5655C38.8236 78.6347 38.8236 78.7729 38.8236 78.9112C38.8236 79.9481 39.3075 80.7086 40.2062 80.7086C40.8975 80.7086 41.3814 80.1555 41.3814 79.2568Z" fill="#372B7B"/>
<path d="M43.317 81.2616V77.2521H42.6257V76.6299H43.317V76.4225C43.317 75.8004 43.4553 75.1782 43.8701 74.8325C44.2157 74.556 44.6305 74.4178 44.9761 74.4178C45.2527 74.4178 45.5292 74.4869 45.6674 74.556L45.5292 75.1782C45.3909 75.1091 45.2527 75.0399 44.9761 75.0399C44.2849 75.0399 44.0775 75.6621 44.0775 76.3534V76.6299H45.1835V77.2521H44.0775V81.2616H43.317Z" fill="#372B7B"/>
<path d="M47.1192 75.3165V76.6299H48.2944V77.2521H47.1192V79.7408C47.1192 80.2938 47.2575 80.6395 47.7414 80.6395C47.9488 80.6395 48.1562 80.6395 48.2253 80.5703L48.2944 81.1925C48.1562 81.2616 47.8797 81.3308 47.534 81.3308C47.1192 81.3308 46.8427 81.1925 46.6353 80.9851C46.4279 80.7086 46.2897 80.2938 46.2897 79.8099V77.3212H45.5984V76.6991H46.2897V75.593L47.1192 75.3165Z" fill="#372B7B"/>
</svg>
