<svg width="69" height="82" viewBox="0 0 69 82" fill="none" xmlns="http://www.w3.org/2000/svg">
<path d="M57.4651 1.34886C57.4651 1.41863 57.4651 1.48839 57.4651 1.55816C57.5349 1.55816 57.5349 1.41863 57.4651 1.34886Z" fill="#7777FF"/>
<path d="M68.1395 6.72096C68.1395 6.23259 68.1395 5.74422 68 5.25585C67.8605 4.76748 67.5814 4.34887 67.093 4.13957C65.6977 4.34887 64.3023 4.69771 62.9767 4.69771C63.0465 4.34887 62.8372 4.13957 62.7674 3.79073C62.4884 3.72096 62.1395 3.72096 61.8605 3.72096C61.8605 3.6512 61.8605 3.58143 61.8605 3.51166C61.7907 2.95352 61.5814 2.53492 61.5116 2.04655C61.5116 1.83724 61.4418 1.55817 61.3023 1.41864C61.1628 1.34887 61.0232 1.2791 60.8837 1.2791C60.3953 1.20934 59.907 1.20934 59.4884 1.2791C59.4884 1.00003 59.4186 0.720964 59.3488 0.441895C58.7907 0.441895 58.1628 0.441895 57.5349 0.441895C57.5349 0.720964 57.4651 1.00003 57.4651 1.2791C57.5349 1.34887 57.5349 1.48841 57.4651 1.48841C57.4651 1.41864 57.4651 1.34887 57.4651 1.2791C56.8372 1.2791 56 1.55817 55.4418 1.69771C55.3023 1.76748 55.093 1.76748 55.0232 1.90701C54.9535 2.04655 54.9535 2.25585 54.9535 2.39538C54.9535 2.74422 55.0232 3.09306 55.0232 3.44189C54.4651 3.37213 53.8372 3.44189 53.3488 3.44189C53.2791 3.44189 53.2791 3.44189 53.2093 3.51166C53.2093 3.51166 53.2093 3.58143 53.2093 3.6512C53.2093 3.93027 53.2791 4.20934 53.4884 4.41864C53.5581 4.41864 53.6279 4.41864 53.6977 4.41864C53.6977 4.48841 53.5581 4.48841 53.4884 4.41864C51.3953 4.20934 49.093 4.00003 47.2791 5.04655C46.5814 5.46515 45.9535 6.02329 45.3953 6.6512C44.8372 7.2791 44.2791 7.90701 44.0697 8.74422C43.8604 9.51166 43.9302 10.2791 44.0697 11.0465L43.5116 11.7442C43.2325 12.0233 42.9535 12.3024 42.9535 12.6512C42.8837 13 43.1628 13.3489 43.4418 13.5582C43.7209 13.7675 44.1395 13.8372 44.4884 13.907C46.0232 14.1861 47.6279 14.2558 49.0232 13.6977C49.3721 13.5582 49.7209 13.4186 49.8604 13.0698C50 12.7907 50 12.5117 49.7907 12.2326C49.6511 12.0233 49.3721 11.814 49.093 11.8838C49.0232 11.4652 49.1628 10.8372 49.4418 10.4884C49.7209 10.1396 50.0697 9.93027 50.4884 9.72096C51.5349 9.30236 52.6511 9.37213 53.7674 9.51166C53.6279 9.58143 53.907 9.79073 53.9767 9.93027C54.0465 10.0698 54.186 10.0698 54.3256 10.1396C55.093 10.2791 55.8605 10.1396 56.6279 10C58.3721 9.72096 60.1163 9.6512 61.8605 9.79073C62.2093 9.79073 62.6279 9.8605 62.907 9.72096C63.186 9.58143 63.3953 9.09306 63.1163 8.81399C64.4418 8.67445 65.6279 8.46515 66.9535 8.32562C67.3023 8.25585 67.5814 8.25585 67.9302 8.32562C67.9302 8.32562 67.9302 8.32562 68 8.32562C68.2791 7.90701 68.0698 7.34887 68.1395 6.72096Z" fill="#7777FF"/>
<path d="M53.5581 4.55817C53.4883 4.55817 53.4185 4.55817 53.3488 4.55817C53.4185 4.62793 53.5581 4.62793 53.5581 4.55817Z" fill="#7777FF"/>
<path d="M44.7674 14.0466C44.4186 13.7675 44.2791 13.2791 44.4884 12.8605C44.6977 12.4419 45.186 12.2326 45.6046 12.3721C45.5349 10.9768 45.5349 9.4419 46.3721 8.25586C46.7907 7.62795 47.4884 7.13958 48.186 6.79074C49.7209 6.0233 51.5349 5.74423 53.2791 6.09306C53.3488 5.88376 53.4186 5.67446 53.4186 5.46516C56.6279 5.39539 59.8372 5.25585 63.0465 5.04655C63.186 5.67446 63.186 6.30237 62.9767 6.86051C59.6977 6.86051 56.4884 6.93027 53.2093 6.93027C53.1395 7.27911 53.0698 7.62795 53.0698 7.97679C52.0232 7.83725 50.9767 7.69772 49.9302 7.83725C48.8837 7.97679 47.8372 8.46516 47.2093 9.30237C46.6511 10.1396 46.5116 11.1861 46.4418 12.1628C46.6511 12.0233 46.8604 11.9535 47.0697 12.0931C47.1395 12.721 47.0697 13.2791 47 13.907L44.7674 14.0466Z" fill="#E1E1FF"/>
<path d="M39.7441 39.5814C39.8139 37.6279 39.1162 37.2791 38.3488 37.1396C36.7441 35.7442 36.4651 34.7675 37.7209 34.0698C38.9767 33.3024 40.5813 34.6977 40.5116 34.4884C40.4418 34.2791 38.6976 32.7442 39.3953 31.6977C40.0232 30.721 44.6976 33.6512 44.6976 33.6512C44.6976 33.6512 44.0697 20.1163 44 17.9535C43.8604 15.8605 43.5116 13.6279 43.5116 13.6279C43.5116 13.6279 45.6046 13.9768 47.0697 14.0465C48.5348 14.1163 49.093 13.9768 49.093 13.9768L50.0697 31C50.0697 31 51.8837 27.3721 53.8372 27.6512C55.7906 27.9303 54.7441 29.9535 54.7441 29.9535C54.7441 29.9535 55.8604 27.9303 57.8139 28.8372C59.7674 29.7442 57.4651 33.0931 57.4651 33.0931C57.4651 33.0931 55.6511 31.4884 53.9767 32.814C53.279 31.0698 50.279 30.5117 48.9534 32.2558C47.5581 34 48.3255 35.814 48.3255 35.814C48.3255 35.814 46.6511 35.7442 46.5116 36.721C44.9069 36.5117 43.5116 36.6512 42.7441 39.8605C40.9302 38.814 39.7441 39.5814 39.7441 39.5814Z" fill="#7777FF"/>
<path d="M50.6977 30.5117C50.9767 30.0233 51.3953 29.6047 51.8837 29.2559C52.1628 29.1163 52.4419 28.9768 52.7907 29.0466C53.1395 29.2559 53.2093 29.7442 53.2791 30.1628C53.3488 30.4419 53.4884 30.7907 53.6977 31C53.907 31.2093 54.2558 31.2791 54.5349 31.1396C54.8837 31 55.0233 30.5814 55.1628 30.3024C55.4419 29.7442 55.8605 29.1861 56.3488 28.7675C56.6279 28.4884 56.9767 28.2791 57.3256 28.3489C57.8837 28.4186 58.2326 29.1163 58.2326 29.6745C58.2326 30.721 57.6744 31.628 57.1163 32.4652C56.9767 32.1861 57.0465 31.8373 57.1163 31.5582C57.1163 31.2791 56.9767 30.8605 56.6977 30.7907C56.4884 30.721 56.2791 30.9303 56.0698 31.0698C55.4419 31.628 54.8837 32.3256 54.0465 32.6047C53.907 32.6745 53.6977 32.6745 53.4884 32.6047C53.2093 32.5349 53 32.2559 52.7907 31.9768C52.5116 31.6279 52.2326 31.3489 51.814 31.1396C51.3953 30.9303 50.9767 30.8605 50.5581 31.0698C50.4884 31.1396 50.1395 31.2093 50 31.2093L50.6977 30.5117Z" fill="#E1E1FF"/>
<path d="M46.7906 14.1861C46.7906 14.3954 46.9302 25.2791 47.3488 23.814C47.7674 22.3489 47.9069 13.8373 47.9069 13.8373L46.7906 14.1861Z" fill="#E1E1FF"/>
<path d="M44.9069 14.3256C44.9069 14.3256 45.6744 26.9535 45.8139 30.2326C45.9535 33.5117 46.7907 28.3489 46.9302 26.1163C47.0697 23.9535 47.4883 35.7442 47.4883 35.7442C47.4883 35.7442 46.3721 35.8838 46.1628 36.9303C44.9767 36.721 44.9767 36.721 44.9767 36.721L43.5116 14.0465L44.9069 14.3256Z" fill="#E1E1FF"/>
<path d="M28.7906 50.6744C28.7906 50.6744 34.1627 48.721 36.9534 47.0465C39.7441 45.3721 50.279 37.7675 52.093 36.5814C53.8372 35.4651 55.5814 34.4186 56.7674 35.5349C57.8837 36.6512 56.8372 37.907 55.6511 39.0233C54.3953 40.1396 46.372 47.4651 46.372 47.4651C46.372 47.4651 50.6976 44.8838 53.279 43.4186C55.9302 41.9535 60.3953 38.8837 61.372 38.3256C62.3488 37.7675 62.279 37.907 62.279 37.907C62.279 37.907 62.3488 36.4419 61.0232 36.6512C59.6976 36.8605 58.9302 37 58.9302 37C58.9302 37 59.1395 30.8605 53.9767 32.6744C52.5813 30.0931 49.7907 31.1396 48.9534 32.2558C48.186 33.3721 47.9767 35.6047 47.9767 35.6047C47.9767 35.6047 46.8604 35.814 46.4418 36.5814C45.5348 36.5117 43.5116 37.3489 43.093 38.2558C42.6744 39.1628 42.7441 39.5117 42.7441 39.5117C42.7441 39.5117 40.4418 38.9535 39.7441 39.5814C39.3255 41.7442 36.4651 44.3954 33.8139 45.5814C31.1627 46.6977 28.7906 50.1861 28.7906 50.6744Z" fill="white"/>
<path d="M47.907 54.6512C47.907 54.6512 53.2791 51.5117 58.3023 48.4419C63.3954 45.4419 63.8837 44.7442 63.9535 44.6047C64.0233 44.4652 64.0233 42.3721 62.6977 42.3024C58.093 46.0698 47 54.721 47 54.721L47.907 54.6512Z" fill="#E1E1FF"/>
<path d="M56.4884 38.1861C56.5581 38.0465 59.8372 36.721 60.9535 36.721C62.0698 36.721 62.2093 37.6279 62.2093 37.6279C62.2093 37.6279 53.8372 43 53 43.6977C52.093 44.3256 46.8605 47.2558 46.8605 47.0465C46.9302 46.907 56.4884 38.1861 56.4884 38.1861Z" fill="#E1E1FF"/>
<path d="M39.2557 40.6977C41.3487 40.1396 42.7441 41.3256 42.7441 41.3256C42.9534 39.5117 46.372 38.7442 46.372 38.7442C46.3022 37.2791 49.3022 37.1396 49.3022 37.1396C49.6511 33.5117 52.6511 32.7442 53.4883 33.7907C52.0929 35.2558 52.0929 35.6047 52.0929 35.6047C52.0929 35.6047 53.9069 33.5117 55.9301 34C57.8836 34.4884 59.0697 36.1628 58.9999 36.721C58.9301 37.2791 58.7208 37.2791 58.7208 37.2791L56.9766 37.8372C56.9766 37.8372 57.8836 36.0233 56.2092 35.3256C54.6046 34.6977 54.0464 35.7442 51.7441 37.1396C49.4418 38.5349 39.8836 45.0233 38.9766 45.6512C38.0697 46.2093 34.0232 49.2093 32.6278 49.6977C31.2325 50.1861 28.5813 51.1628 28.5813 51.1628C28.5813 51.1628 29.2092 48.7907 31.2325 47.5349C33.2557 46.2791 37.4418 44.3954 38.0697 43.3489C38.7673 42.3024 39.2557 40.6977 39.2557 40.6977Z" fill="#E1E1FF"/>
<path d="M2.34875 65.6047C14.4185 58.4884 18.8836 50.5349 21.2557 47.5349C23.6278 44.5349 32.7674 41.1861 34.372 39.8605C35.9767 38.5349 38.3488 37.4186 38.9069 37.2791C39.5348 37.2093 40.5813 37.6977 39.9534 39.6512C39.3255 41.6047 36.2557 44.814 33.465 46.2093C30.6743 47.6047 28.9999 48.8605 28.6511 51.0233C31.9999 49.7675 37.7906 46.4884 40.3022 44.5349C42.8836 42.5814 50.4185 38.3256 51.6046 36.7907C52.8604 35.3256 56.3488 34.0698 57.0464 35.3954C57.7441 36.721 56.4883 39.0233 53.0697 41.2559C49.6511 43.5582 46.2325 47.3954 46.2325 47.3954C46.2325 47.3954 51.9534 44.6047 53.9069 43.0698C55.8604 41.6047 61.7208 36.721 64.3022 37.907C65.4185 38.4652 63.7441 41.6047 62.3488 42.5814C60.9534 43.5582 51.2557 51.3024 50.6976 51.8605C50.0697 52.4884 46.5813 54.9303 46.5813 54.9303C46.5813 54.9303 50.7674 53.4652 54.2557 51.2326C57.6743 49.0698 61.4418 45.721 62.6278 45.0931C63.7441 44.4652 66.465 44.1163 65.6976 46.5582C64.9301 49 60.9534 53.1163 58.7906 54.721C56.6278 56.3256 51.1162 60.1628 49.7208 61.1396C48.3255 62.1163 47.6976 62.8838 47.6976 62.8838C47.6976 62.8838 51.7441 61.2093 53.7674 59.5349C55.7906 57.8605 59.9767 55.6977 61.4418 56.0466C62.8371 56.3954 62.7674 57.3024 61.0929 58.7675C59.4185 60.2326 55.9999 63.2326 53.7674 64.4884C51.6046 65.7442 42.3255 71.8838 36.3953 72.8605C30.3953 73.8372 19.7208 75.2326 17.4883 76.5582C15.3255 77.8838 13.0929 79.1396 13.0929 79.1396L2.34875 65.6047Z" fill="white"/>
<path d="M56.0697 35.3256C56.9767 37.3489 48.186 43.2093 46.2325 44.4652C44.279 45.721 39.3953 49.9768 40.1627 50.6047C40.9302 51.2326 42.6046 49.9768 42.6046 49.9768C42.6046 49.9768 53.9069 41.0465 55.3721 39.6512C56.7674 38.2558 58.9302 35.8838 56.0697 35.3256Z" fill="#E1E1FF"/>
<path d="M62.907 37.6279C63.6046 38.5349 62.2093 40.2791 59.6279 42.4419C57.0465 44.6047 45.814 52.5582 44.4884 53.6047C43.1628 54.6512 43.1628 56.9535 46.5116 55.0698C49.9302 53.2558 60.8837 44.5349 62.3488 42.721C63.8837 40.8372 66.6744 39.093 62.907 37.6279Z" fill="#E1E1FF"/>
<path d="M64.6512 44.7442C64.7209 46.3489 58.5814 52.907 54.814 54.8605C51.0465 56.814 45.3256 61.2791 44.6279 62.3954C43.9302 63.5117 46.4419 63.0931 49.0233 61.6279C51.6047 60.1628 59.1395 54.7907 60.4651 53.2558C61.7209 51.7907 67.3023 46.6279 64.6512 44.7442Z" fill="#E1E1FF"/>
<path d="M61.3023 56.2558C61.2325 57.2326 51.2558 64.7675 44.9767 67.3489C38.6279 69.9303 25.9302 69.7907 20.2791 70.6977C14.6279 71.6047 4.23254 78.3721 4.23254 78.3721L8.41859 81.1628C8.41859 81.1628 19.7209 74.7442 25.5814 74.4651C31.3721 74.1861 39.0465 73.8372 48.186 68.1163C57.3256 62.3954 61.8605 58.8372 62.3488 57.6512C62.6977 56.4651 61.3023 56.2558 61.3023 56.2558Z" fill="#E1E1FF"/>
<path d="M30.6046 50.2558C30.6046 50.2558 24.6046 53.3954 24.6046 53.1861C24.6046 52.9768 25.5814 48.721 29 46.1396C32.4186 43.5582 38.9069 40.6279 39.6046 37.9768C39.8139 41.1163 37.0232 43.7675 34.6511 45.093C32.3488 46.4186 27.9535 49.2791 30.6046 50.2558Z" fill="#E1E1FF"/>
<path d="M0.604614 61.6977C7.58136 57.3721 14.1395 52.8373 16.2325 49.2094C18.3255 45.5814 18.9534 44.4652 21.8837 43.0001C24.8139 41.5349 35.9767 35.0466 36.4651 35.3256C36.8837 35.5349 36.186 38.6047 35.9767 38.6047C35.6976 38.6047 26.4186 42.3024 23.9767 45.4419C21.5348 48.5814 19.2325 51.2326 16.1628 54.3721C13.093 57.5117 3.53485 65.3256 3.53485 65.3256L0.604614 61.6977Z" fill="#E1E1FF"/>
<path d="M64.3721 44.1163C64.3023 44.1163 64.3023 44.1163 64.2325 44.1163C64.2325 43.8373 64.093 43.5582 64.0232 43.3489C63.8837 43.0001 63.6046 42.721 63.3256 42.5117C63.6046 42.2326 63.8837 41.9535 64.093 41.6047C64.6511 40.8373 65.2093 39.7908 65 38.814C64.7209 37.628 63.4651 37.2791 62.4186 37.4187C62.4186 37.4187 62.4186 37.4187 62.3488 37.4187C62.3488 37.3489 62.3488 37.3489 62.3488 37.2791C62.2093 36.721 61.6511 36.5117 61.1628 36.5117C60.5349 36.5117 59.8372 36.6512 59.2093 36.7908C59.1395 36.7908 59.1395 36.7908 59.1395 36.7908C59.1395 35.3954 58.8604 33.8605 57.8837 32.814C58.093 32.6745 58.3023 32.4652 58.4418 32.2559C58.7209 31.907 58.9302 31.4884 59.0697 31.0001C59.279 30.2326 59.2093 29.3954 58.7209 28.7675C58.2325 28.0698 57.3256 27.9303 56.5581 28.1396C56.0697 28.2791 55.6511 28.5582 55.3023 28.907C55.3023 28.628 55.3023 28.4187 55.1628 28.2094C54.9535 27.5117 54.2558 27.0931 53.5581 27.2326C52.7209 27.3024 52.0232 27.8605 51.4651 28.4187C50.907 28.9768 50.5581 29.6047 50.3488 30.3024C50.2093 27.9303 50.0697 25.4884 49.9302 23.1163C49.8604 21.721 49.7907 20.3256 49.6511 18.8605C49.5116 17.5349 49.5814 16.0001 49.1628 14.7442C49.093 14.5349 48.7442 14.5349 48.7442 14.7442C48.4651 16.0001 48.6744 17.3954 48.7442 18.721C48.8139 20.1861 48.8837 21.6512 48.9535 23.1163C49.093 25.907 49.2325 28.6977 49.4418 31.4884C48.186 32.3256 47.6977 33.9303 47.8372 35.3954C47.0697 35.3954 46.4418 35.8838 46.093 36.4419C45.8139 36.3024 45.4651 36.3721 45.2558 36.3721C45.2558 36.3024 45.2558 36.3024 45.2558 36.2326C45.0465 34.5582 45.1163 32.814 45.0465 31.0698C45.0465 29.1861 44.9767 27.3024 44.8372 25.4187C44.7674 23.6047 44.6279 21.721 44.4883 19.907C44.3488 18.2326 44.3488 16.2094 43.7907 14.5349C43.7907 14.4652 43.5814 14.3954 43.5814 14.5349C43.4418 15.3721 43.5814 16.2791 43.5814 17.1163C43.6511 18.1628 43.7209 19.1396 43.7907 20.1861C43.9302 22.2094 44 24.1628 44.0697 26.1861C44.1395 28.1396 44.1395 30.0931 44.1395 32.0466C44.1395 32.3954 44.1395 32.814 44.1395 33.1628C43.5814 32.6745 42.9535 32.2559 42.2558 31.8373C41.5581 31.4884 40.7209 31.0001 39.9535 31.0001C39.186 31.0698 38.6976 31.628 38.8372 32.3954C38.907 32.7442 39.186 33.0931 39.3953 33.3721C39.4651 33.4419 39.5349 33.5117 39.6046 33.5814C39.2558 33.4419 38.8372 33.3721 38.4186 33.3721C37.7907 33.3721 37.093 33.721 36.7442 34.2791C36.6744 34.4187 36.6046 34.4884 36.6046 34.628C36.3256 34.4884 35.9069 34.5582 35.4883 34.6977C33.186 35.4652 31.093 36.8605 29 38.0466C26.6279 39.4419 24.2558 40.907 21.9535 42.4419C21.3256 42.8605 20.6976 43.2791 20.1395 43.6977C18.2558 45.2326 16.7907 47.3256 15.3256 49.2094C13.5116 51.4419 11.4186 53.3954 9.18602 55.2094C7.99997 56.1163 6.74416 57.0233 5.55811 57.9303C4.5116 58.6977 3.11625 59.3256 2.27904 60.3721C2.20928 60.4419 2.27904 60.6512 2.41858 60.5814C3.39532 60.3024 4.3023 59.6047 5.13951 59.0466C6.18602 58.3489 7.23253 57.6512 8.20928 56.9535C10.0232 55.6977 11.6976 54.3024 13.3023 52.8373C14.9767 51.2326 16.3721 49.4187 17.8372 47.6745C18.8139 46.4884 20 45.0931 21.186 44.2559C24.9535 41.5349 29.0697 39.0931 33.186 36.9303C34.0232 36.4419 34.9302 35.9535 35.9069 35.6745C35.9767 35.6745 36.1163 35.6047 36.2558 35.6047C36.2558 35.6745 36.2558 35.7442 36.3256 35.8838C36.2558 36.7907 35.7674 37.8373 34.9302 38.2559C34.7209 38.3256 34.7209 38.5349 34.7209 38.6745C32.4186 39.9303 29.9069 40.8373 27.6744 42.2326C25.4418 43.5582 23.3488 45.1628 21.4651 46.907C19.4418 48.7908 17.907 50.9535 16.2325 53.1163C14.4186 55.628 12.3953 57.7908 10.0232 59.814C7.65114 61.8373 4.99997 63.6512 2.41858 65.4652C1.99997 65.7442 2.34881 66.3721 2.83718 66.1628C7.02323 63.5117 11.279 60.721 14.5581 57.0233C16.3023 55.0698 17.6976 52.8373 19.3721 50.7442C20.9767 48.7908 22.7907 47.0466 24.8139 45.5117C26.8372 43.9768 29 42.6512 31.3023 41.6047C33.5349 40.5582 35.6279 39.5117 37.6511 38.1163C38.2093 37.6977 39.0465 37.2791 39.3256 38.1861C39.4651 38.6047 39.3953 39.1628 39.2558 39.5814C39.0465 40.3489 38.7674 40.9768 38.279 41.6047C37.3721 42.8605 36.0465 43.6977 34.7209 44.5349C31.9302 46.2094 28.7209 47.814 28.093 51.3024C27.9535 52 28.8604 52.2094 29.1395 51.5814C29.0697 51.7907 29.2093 51.5814 29.3488 51.5117C29.4883 51.4419 29.6279 51.3024 29.8372 51.2326C30.3256 50.9535 30.8837 50.6745 31.3721 50.4652C32.279 50.0466 33.2558 49.628 34.1628 49.1396C35.6279 48.4419 36.9535 47.3954 38.3488 46.4884C40.0232 45.3721 41.6976 44.3256 43.3721 43.2791C45.1163 42.2326 46.7907 41.1861 48.4651 40.0001C50 38.9535 51.3256 37.7675 52.7907 36.721C53.4883 36.2326 54.2558 35.7442 55.1628 35.5349C56.279 35.2559 57.5349 35.8838 56.8372 37.2094C56.4186 38.0466 55.5814 38.6745 54.8837 39.3024C54.186 40.0001 53.4186 40.6977 52.6511 41.3256C49.3023 44.2559 45.7442 46.907 42.2558 49.7675C41.7674 50.1861 42.4651 50.814 42.9535 50.4652C45.3953 48.5117 48.3953 47.1861 51.1163 45.5814C54.1163 43.8373 56.8372 41.6047 59.6977 39.7907C60.4651 39.3024 61.2325 38.7442 62.0697 38.4652C62.6279 38.2559 63.7442 38.1163 64.093 38.814C64.4418 39.5814 63.6744 40.6977 63.186 41.2559C62.0697 42.4419 60.6744 43.4884 59.4186 44.5349C58.093 45.6512 56.6977 46.7675 55.3023 47.814C52.0232 50.3954 48.6744 52.7675 45.3256 55.2094C44.9069 55.5582 45.1163 56.2559 45.7442 56.1163C51.8139 54.4419 56.6976 50.2559 61.7209 46.628C62.279 46.2094 62.9069 45.721 63.4651 45.3721C64.0232 45.0233 64.9302 45.0233 65 45.8605C65.0697 46.4187 64.7907 46.907 64.5116 47.3256C63.7442 48.721 62.7674 49.9768 61.6511 51.0931C59.4883 53.3954 56.907 55.3489 54.3256 57.2326C51.8139 59.1163 48.6744 60.3721 46.6511 62.8838C46.3023 63.3024 46.7209 64.0698 47.279 63.721C47.6279 63.4419 48.186 63.3721 48.6046 63.1628C49.3023 62.8838 50 62.6047 50.6977 62.2559C51.6046 61.8373 52.3721 61.2791 53.1395 60.721C54.3256 59.9535 55.5116 59.1861 56.6977 58.4187C57.8139 57.721 59 56.9535 60.3256 56.7442C60.6046 56.6745 61.0232 56.6047 61.3023 56.7442C61.7907 56.9535 61.5814 57.3721 61.3023 57.721C60.8837 58.1396 60.3953 58.4884 59.907 58.907C57.8837 60.5117 55.8604 62.1163 53.7674 63.5814C49.6511 66.5117 45.3256 69.1628 40.5814 70.907C38.2093 71.814 35.7674 72.4419 33.2558 72.8605C30.5349 73.2791 27.8139 73.2791 25.093 73.7675C19.093 74.814 13.1628 77.4652 7.93021 80.5349C7.3023 80.8838 7.86044 81.9303 8.48835 81.5117C13.5814 78.5117 19.3023 75.9303 25.2325 74.8838C28.2325 74.3256 31.3023 74.3954 34.3023 73.8373C36.9535 73.3489 39.6046 72.5117 42.1162 71.5349C47.1395 69.4419 51.6744 66.5117 56 63.3024C57.0465 62.5349 58.1628 61.6977 59.2093 60.8605C60.186 60.0931 61.3721 59.3256 62.2093 58.4187C62.8372 57.721 63.0465 56.6047 62.279 55.9768C61.4418 55.2791 60.0465 55.5582 59.1395 55.907C57.6744 56.3954 56.4186 57.3024 55.1628 58.0698C53.6977 59.0466 52.2325 60.0233 50.7674 60.9303C50.3488 61.2094 49.9302 61.3489 49.4418 61.5582C51.2558 60.1628 53.4883 59.0466 55.3023 57.721C58.0232 55.6977 60.8139 53.6047 63.0465 51.0233C64.093 49.8373 65.279 48.3721 65.8372 46.907C66.186 45.9303 65.8372 44.2559 64.3721 44.1163ZM50.7674 30.5814C51.186 29.5349 52.093 28.4187 53.2093 28.0001C53.7674 27.7908 54.3256 27.8605 54.4651 28.5582C54.5349 29.0466 54.4651 29.5349 54.3256 30.0233C54.186 30.3721 54.7442 30.721 55.0232 30.4419C55.4418 29.9535 55.9302 29.3954 56.4883 29.1163C57.0465 28.8373 57.8139 28.8373 58.1628 29.4652C58.4418 29.9535 58.3721 30.6512 58.093 31.1396C57.8837 31.4884 57.4651 31.9768 57.3256 32.3954C56.3488 31.7675 54.9535 31.628 53.9767 32.2559C53.2093 31.0698 51.6744 30.5814 50.279 30.9303C50.279 30.8605 50.279 30.7908 50.279 30.721C50.4186 30.8605 50.6977 30.7908 50.7674 30.5814ZM37.1628 36.721C37.3023 36.7908 37.3721 36.9303 37.5116 37.0001C37.3721 37.0698 37.1628 37.1396 37.0232 37.2791C37.0232 37.0698 37.093 36.9303 37.1628 36.721ZM38.7674 36.6512L38.6976 36.5814C38.279 36.3721 37.8604 36.2326 37.5814 35.8838C37.3023 35.5349 37.2325 35.1163 37.5116 34.7675C38.2093 33.9303 39.4651 34.4884 40.3023 34.8373C40.6511 34.9768 40.9302 34.7675 40.8604 34.4187C40.7907 33.7908 40.2325 33.3721 39.8837 32.8838C39.6744 32.6745 39.4651 32.2559 39.6046 31.9768C39.7442 31.6977 40.093 31.7675 40.3721 31.7675C41.0697 31.907 41.6976 32.2559 42.3256 32.6047C42.9535 32.9535 43.5814 33.3721 44.2093 33.7907C44.2093 34.2094 44.2093 34.628 44.2093 35.1163C44.2093 35.6047 44.2093 36.1628 44.5581 36.4419C44.0697 36.6512 43.5814 36.9303 43.2325 37.3489C42.8139 37.8373 42.5349 38.3954 42.4651 38.9535C41.9767 38.9535 41.6976 38.8838 41.3488 38.9535C41 38.9535 40.6511 39.0931 40.3721 39.3024C40.4418 38.6745 40.3721 38.0466 40.093 37.5582C39.7442 36.9303 39.2558 36.6512 38.7674 36.6512ZM55.8604 34.628C54.1163 34.4884 52.5814 35.7442 51.2558 36.7908C49.4418 38.2559 47.4883 39.6512 45.4651 40.907C43.5814 42.0931 41.6279 43.2791 39.7442 44.4652C37.7907 45.6512 35.9767 47.0466 33.9535 48.1628C32.8372 48.7907 31.6511 49.2094 30.5349 49.7675C30.2558 49.907 29.9069 50.0466 29.5581 50.1861C30.8139 47.8838 33.5349 46.628 35.6976 45.3024C37.0232 44.4652 38.279 43.5582 39.1163 42.3024C39.6046 41.6047 40.0232 40.6977 40.2325 39.7907C40.5814 39.7907 40.9302 39.6512 41.279 39.6512C41.6976 39.6512 42.0465 39.7907 42.3256 40.0698C42.6046 40.2791 43.0232 40.1396 43.0232 39.7907C43.0232 39.0931 43.3023 38.4652 43.7907 37.9768C44.0697 37.7675 44.3488 37.5582 44.6976 37.4187C45.0465 37.2791 45.3256 37.3489 45.6744 37.3489C45.6744 37.7675 45.7442 38.1163 46.0232 38.5349C45.9535 38.6047 45.8139 38.6745 45.7442 38.7442C45.186 39.1628 44.9069 40.0001 45.2558 40.628C45.4651 40.907 45.8837 40.6977 45.7442 40.3489C45.6046 40.1396 45.6744 39.9303 45.7442 39.721C45.8139 39.5117 46.0232 39.3024 46.1628 39.1628C46.7209 38.814 47.4186 38.814 48.0465 38.8838C48.186 38.8838 48.3256 38.7442 48.3953 38.6047C48.4651 38.1163 47.8372 38.1861 47.5581 38.1861C47.3488 38.1861 47.1395 38.1861 46.9302 38.2559C46.8604 38.2559 46.7907 38.2559 46.7209 38.3256C46.0232 37.3489 46.8604 36.0233 48.0465 36.3024C48.3256 36.3721 48.6046 36.0931 48.5349 35.814C48.2558 34.4187 48.7442 32.6745 50.1395 32.0466C51.3953 31.4884 52.9302 31.9768 53.4883 33.2326C53.6279 33.5117 53.9767 33.5117 54.1163 33.3024C55.0232 32.3954 56.5581 32.7442 57.3953 33.5814C58.3023 34.5582 58.4418 35.8838 58.3721 37.2094C58.093 37.2791 57.8837 37.4187 57.6046 37.5582C58.2325 35.9535 57.2558 34.6977 55.8604 34.628ZM57.4651 40.0698C55.7907 41.1861 54.186 42.3721 52.5116 43.5582C51.3256 44.3256 50.0697 45.0233 48.8139 45.721C50.3488 44.4652 51.9535 43.2094 53.4186 41.8838C54.186 41.1861 55.0232 40.4884 55.7209 39.721C56.1395 39.3024 56.5581 38.8838 56.9767 38.4652C57.1163 38.3954 57.2558 38.3256 57.3953 38.2559C57.7442 38.1163 58.093 37.9768 58.4418 37.8373C58.5814 38.0466 59.0697 37.9768 59.1395 37.628C59.6279 37.4884 60.1163 37.3489 60.6744 37.2791C60.8837 37.2791 61.6511 37.0698 61.7209 37.4187C61.7209 37.4884 61.7209 37.4884 61.7907 37.4884C61.2325 37.6977 60.7442 37.9768 60.2558 38.2559C59.2093 38.814 58.3023 39.4419 57.4651 40.0698ZM62.3488 44.8838C61.6511 45.3721 60.8837 45.9303 60.186 46.4884C58.7907 47.5349 57.3953 48.5815 55.9302 49.628C53.6279 51.3024 51.2558 52.907 48.6046 54.0233C50.9767 52.2791 53.3488 50.5349 55.6511 48.721C57.2558 47.4652 58.8604 46.2094 60.3953 44.8838C61.1628 44.1861 62.0697 43.5582 62.907 42.8605C62.9767 42.9303 63.1163 43.0001 63.186 43.1396L63.2558 43.2094L63.3256 43.3489L63.3953 43.4884V43.5582C63.4651 43.628 63.4651 43.7675 63.4651 43.8373V43.9768V44.0466V44.1163C63.4651 44.1861 63.4651 44.1861 63.4651 44.2559C63.1163 44.3256 62.7674 44.6047 62.3488 44.8838Z" fill="#372B7B"/>
<path d="M67.9302 8.18608C67.5813 7.97678 67.093 8.11631 66.7441 8.11631C66.3255 8.11631 65.9767 8.11631 65.5581 8.11631C65.2093 8.11631 64.7907 8.11631 64.4418 8.11631C64.093 8.11631 63.8139 8.18608 63.5348 8.18608C63.6046 7.0698 63.6046 5.95352 63.5348 4.90701C63.7441 4.90701 63.8837 4.90701 64.093 4.90701C64.4418 4.90701 64.7906 4.90701 65.1395 4.83724C65.8372 4.83724 66.6046 4.83724 67.3023 4.69771C67.5116 4.69771 67.6511 4.55817 67.6511 4.34887C67.6511 4.13957 67.5116 4.00003 67.3023 4.00003C66.5348 4.00003 65.8372 4.13957 65.0697 4.20934C64.7209 4.20934 64.372 4.2791 64.0232 4.2791C63.8139 4.2791 63.6744 4.34887 63.5348 4.34887C63.5348 4.13957 63.5348 3.93027 63.5348 3.72096C63.5348 3.44189 63.3255 3.16282 62.9767 3.16282C62.6279 3.16282 62.279 3.16282 61.9302 3.16282C61.9302 3.02329 61.9302 2.95352 61.9302 2.81399C61.9302 2.67445 61.9302 2.46515 61.8604 2.32562C61.7907 2.04655 61.7906 1.76748 61.7209 1.48841C61.7209 1.41864 61.5814 1.34887 61.5116 1.34887C61.4418 1.34887 61.372 1.41864 61.372 1.41864C60.9534 1.13957 60.4651 1.13957 59.9767 1.0698C59.8372 1.0698 59.6279 1.0698 59.4883 1.0698C59.4883 0.930266 59.4883 0.720964 59.4883 0.581429V0.511662C59.279 0.511662 59.1395 0.511662 58.9302 0.511662V0.581429C58.9302 0.720964 58.9302 0.930266 58.9302 1.0698C58.7209 1.0698 58.5116 1.0698 58.3023 1.0698C58.2325 1.0698 58.1627 1.0698 58.093 1.0698C58.093 0.860499 58.093 0.651197 58.093 0.441895C57.8837 0.441895 57.6744 0.441895 57.4651 0.441895C57.4651 0.651197 57.4651 0.930267 57.4651 1.13957C57.186 1.2791 56.9069 1.2791 56.6976 1.34887C56.4186 1.41864 56.1395 1.48841 55.9302 1.55817C55.6511 1.62794 55.5116 1.69771 55.372 1.90701C55.2325 1.83724 55.0232 1.90701 54.8837 1.97678C54.7441 2.11631 54.7441 2.32562 54.6744 2.46515C54.6744 2.53492 54.6744 2.67445 54.6744 2.74422C54.6744 2.95352 54.7441 3.09306 54.8139 3.23259C54.3255 3.23259 53.8372 3.30236 53.3488 3.37213C53.1395 3.37213 53.0697 3.58143 53.1395 3.72096C53.0697 3.93027 53 4.20934 53 4.41864C53 4.34887 52.9302 4.34887 52.8604 4.34887C50.4883 3.93027 47.6976 4.20934 45.7441 5.81399C44.9069 6.51166 44.1395 7.41864 43.7209 8.46515C43.3023 9.44189 43.093 10.6279 43.5116 11.6047C43.4418 11.6047 43.3023 11.6047 43.2325 11.6047C42.7441 11.5349 42.5348 12.1628 42.8139 12.3721C42.3953 13 42.8837 13.8372 43.5116 14.1163C43.9302 14.3256 44.4186 14.3256 44.9069 14.3954C45.1162 14.3954 45.3255 14.3954 45.6046 14.4651C45.5348 17.9535 45.6744 21.5117 45.9534 25.0698C45.9534 25.3489 46.4418 25.4186 46.4418 25.0698C46.3023 21.5117 46.372 18.0233 46.5116 14.4651C47.4186 14.5349 48.6046 14.7442 49.372 14.1861C50.0697 13.6977 50.4186 12.5814 49.7209 12.0233C49.6511 11.9535 49.5813 11.9535 49.4418 11.9535C49.093 11.3954 49.4418 10.6279 49.9302 10.3489C50.279 10.0698 50.7674 10 51.2558 10C51.5348 10 51.7441 10 52.0232 10.0698C52.1627 10.0698 52.2325 10.0698 52.372 10.1396C52.4418 10.1396 52.5116 10.1396 52.5813 10.1396C52.6511 10.1396 52.7907 10.1396 52.8604 10.0698C53 10.0698 53.0697 10 53.0697 9.8605C53.0697 9.8605 53.0697 9.8605 53.0697 9.93027C53.0697 9.93027 53.0697 9.93027 53 9.93027C52.8604 10.0698 52.8604 10.2791 53 10.4186C53.4883 10.907 54.5348 10.6279 55.1627 10.6279C56 10.6279 56.9069 10.5582 57.7441 10.5582C59.4186 10.4884 61.093 10.4186 62.8372 10.4186C63.1162 10.4186 63.3255 10.2093 63.3953 9.8605C63.3953 9.6512 63.3953 9.44189 63.3953 9.16282C63.6744 9.23259 64.0232 9.23259 64.3023 9.23259C64.7209 9.23259 65.0697 9.23259 65.4883 9.23259C65.8372 9.23259 66.2558 9.23259 66.6046 9.23259C67.0232 9.23259 67.5116 9.30236 67.8604 9.16282C68.279 8.95352 68.279 8.39538 67.9302 8.18608ZM48.6046 13.3489C47.9767 13.5582 47.2093 13.4186 46.6511 13.4186C45.9534 13.4186 45.186 13.4186 44.4883 13.3489C44.2093 13.3489 43.8604 13.3489 43.6511 13.1396C43.5116 13 43.372 12.721 43.5116 12.5814C43.5116 12.5117 43.5813 12.5117 43.5813 12.4419C45.3953 12.7907 47.279 12.7907 49.0232 12.4419C49.0232 12.4419 49.0232 12.4419 49.0232 12.5117C49.2325 12.8605 48.9534 13.2791 48.6046 13.3489ZM53 9.23259C52.9302 9.16282 52.8604 9.16282 52.7209 9.09306C52.6511 9.09306 52.5116 9.09306 52.4418 9.09306C52.3023 9.09306 52.1627 9.09306 51.9534 9.02329C51.6744 9.02329 51.3255 9.02329 51.0465 9.02329C50.4883 9.09306 49.8604 9.30236 49.4418 9.72096C49.0232 10.1396 48.7441 10.8372 48.8139 11.3954C47.279 11.6745 45.8139 11.7442 44.279 11.6047C44.3488 11.5349 44.3488 11.4651 44.3488 11.3954C44.279 10.907 44.2093 10.4884 44.279 10C44.3488 9.51166 44.4883 9.09306 44.6279 8.67445C45.0465 7.76748 45.6744 7.00003 46.4418 6.37213C48.2558 4.97678 50.5581 4.83724 52.7907 4.76748C52.8604 4.76748 52.8604 4.76748 52.9302 4.69771C52.7906 5.39538 52.7907 6.09306 52.7907 6.79073C52.7907 7.34887 52.8604 7.90701 52.9302 8.39538C52.9302 8.74422 53 9.02329 53 9.23259C53 9.30236 53 9.23259 53 9.23259ZM55.5116 2.46515C55.5116 2.39538 55.5813 2.32562 55.5813 2.25585C55.7209 2.25585 55.8604 2.25585 56 2.25585C56.279 2.18608 56.4883 2.18608 56.7674 2.11631C57.2558 2.04655 57.8139 2.04655 58.372 2.04655C58.8604 2.04655 59.4186 2.04655 59.9069 2.11631C60.3953 2.18608 60.8837 2.25585 61.3023 2.18608C61.3023 2.25585 61.3023 2.32562 61.3023 2.46515C61.3023 2.60468 61.2325 2.81399 61.2325 2.95352C61.2325 3.09306 61.2325 3.16282 61.2325 3.30236C60.186 3.30236 59.2093 3.30236 58.1627 3.30236C57.3255 3.30236 56.4186 3.30236 55.5813 3.30236C55.5813 3.23259 55.5813 3.23259 55.5813 3.23259C55.5813 3.16282 55.5116 3.09306 55.5116 3.02329C55.5116 2.95352 55.5116 2.88375 55.5116 2.81399C55.4418 2.60468 55.5116 2.53492 55.5116 2.46515ZM62.4186 9.23259C60.8837 9.30236 59.3488 9.37213 57.8837 9.37213C57.0465 9.37213 56.2093 9.44189 55.372 9.44189C54.9534 9.44189 54.5348 9.44189 54.186 9.51166C54.1162 9.09306 54.0465 8.74422 53.9767 8.39538C53.9069 7.90701 53.8372 7.34887 53.7674 6.8605C53.6976 5.95352 53.6976 5.04655 53.7674 4.0698C55.2325 4.20934 56.7674 4.20934 58.2325 4.2791C59.6279 4.34887 61.093 4.34887 62.4883 4.34887C62.4883 5.95352 62.4883 7.62794 62.4186 9.23259Z" fill="#372B7B"/>
<path d="M39.5348 36.721C38.9767 36.6512 38.4883 36.2326 38.4185 35.7442C38.3488 35.1861 38.8372 34.628 39.3255 34.6977C39.6046 34.6977 39.8139 34.8373 40.0232 34.9768C40.4418 35.1861 40.9302 35.2559 41.3488 35.1861C41.279 34.6977 40.9302 34.3489 40.5813 34C40.2325 33.6512 40.0232 33.0931 40.2325 32.7442C40.4418 32.4652 40.7906 32.3954 41.1395 32.4652C41.4883 32.5349 41.7674 32.7442 42.0465 32.9535C42.6046 33.3024 43.1627 33.721 43.7209 34.0698C43.372 34.2791 42.9534 34 42.6046 34.0698C42.1162 34.1396 41.9069 34.6977 41.9069 35.1163C41.9069 35.6047 42.186 36.0233 42.3255 36.4419C42.3953 36.5814 42.3953 36.7907 42.3255 36.9303C42.2558 37.1396 41.9767 37.1396 41.8372 37.2791C41.6279 37.3489 41.4185 37.4884 41.4883 37.6977C41.4883 37.8373 41.6279 37.907 41.6976 37.9768C41.9069 38.1163 42.1162 38.3256 42.2558 38.5349C42.3953 38.7442 42.3953 39.0931 42.186 39.3024C42.1162 39.3721 41.9767 39.4419 41.8372 39.5117C41.2092 39.721 40.5116 39.5814 39.8837 39.2326C39.9534 38.6745 39.8837 38.0466 39.6046 37.4884L39.5348 36.721Z" fill="#E1E1FF"/>
</svg>
